<svg xmlns="http://www.w3.org/2000/svg" width="16" height="16"><style type="text/css">.icon-canvas-transparent{opacity:0;fill:#F6F6F6;} .icon-vs-out{fill:#F6F6F6;} .icon-vs-bg{fill:#424242;} .icon-vs-fg{fill:#F0EFF1;} .icon-vs-action-orange{fill:#C27D1A;}</style><path class="icon-canvas-transparent" d="M16 16h-16v-16h16v16z" id="canvas"/><path class="icon-vs-out" d="M16 11v5h-7v-3.586l-2.414-2.414h-2.586v-3.586l-1.5 1.5-2.5-2.5v-1.828l3.586-3.586h.828l3 3h.172l1.414-1.414 2.914 2.914-1.5 1.5 2.008 2.007.172-.007c2.78 0 3.21 1.827 3.329 3h.077z" id="outline"/><path class="icon-vs-action-orange" d="M7.5 9.5l.5-.5h-3v-4h-1l-1.5 1.5-2-2 3.5-3.5 2 2-1 1h3l1-1 1.5 1.5-2.5 2.5-1.5-1.5.5-.5h-1v3h3l1-1 1.184 1.183c-1.63.483-1.972 1.818-2.099 2.732l-.085.085-1.5-1.5z" id="iconBg"/><path class="icon-vs-bg" d="M10.018 11.531c.13-1.125.18-2.531 2.576-2.531 2.227 0 2.285 1.412 2.37 2.531h-.966c-.014-.746-.155-1.541-1.404-1.541-1.241 0-1.516.812-1.575 1.541h-1.001zm4.982.469v3h-5v-3h5zm-2 1h-1v1h1v-1z" id="notificationBg"/><path class="icon-vs-fg" d="M12 13h1v1h-1v-1z" id="notificationFg"/></svg>