<svg xmlns="http://www.w3.org/2000/svg" viewBox="0 0 16 16"><style>.icon-canvas-transparent{opacity:0;fill:#f6f6f6}.icon-vs-out{fill:#f6f6f6}.icon-vs-bg{fill:#424242}.icon-cs-green{fill:#388a34}.icon-vs-fg{fill:#f0eff1}</style><path class="icon-canvas-transparent" d="M0 0h16v16H0z" id="canvas"/><path class="icon-vs-out" d="M11.621 0H3v5.587l-3 3v.829l2.818 2.807.182-.182V16h13V4.379z" id="outline"/><g id="iconBg"><path class="icon-vs-bg" d="M5.195 14H4v1h2.196zm6.012-13H4v3.587l.001-.001.999 1V2h5v4h4v8H9.981l-1 1H15V4.793L11.207 1zM11 5V2.207L13.793 5H11z"/><path class="icon-vs-bg" d="M5.195 14H4v1h2.196zm6.012-13H4v3.587l.001-.001.999 1V2h5v4h4v8H9.981l-1 1H15V4.793L11.207 1zM11 5V2.207L13.793 5H11z"/></g><path class="icon-vs-fg" d="M14 6v8H9.981l1.038-1.037-1.636-1.632 1.632-1.632-2.807-2.798L7.114 8H7.04l.186-.187L5 5.585V2h5v4h4zm-3-4v3h3l-3-3zm0 .207V5h2.793L11 2.207z" id="iconFg"/><path class="icon-cs-green" d="M8.215 11.578l-.42.422H5v-2h1.529l-.332.33 1.388 1.385L9.6 9.7 8.211 8.316 7.529 9H4.628l1.185-1.187L4.001 6 1 9.001l1.818 1.81L4 9.637V13h2.796l-.595.592 1.388 1.385 2.015-2.013z" id="colorImportance"/></svg>