<svg xmlns="http://www.w3.org/2000/svg" viewBox="0 0 16 16"><style>.icon-canvas-transparent{opacity:0;fill:#f6f6f6}.icon-vs-out{fill:#f6f6f6}.icon-vs-fg{fill:#f0eff1}.icon-vs-action-purple{fill:#652d90}.st0{fill:#424242}</style><path class="icon-canvas-transparent" d="M16 16H0V0h16v16z" id="canvas"/><path class="icon-vs-out" d="M16 12c0 2.206-1.794 4-4 4-1.859 0-3.411-1.279-3.858-3H2.25A2.253 2.253 0 0 1 0 10.75v-5.5A2.252 2.252 0 0 1 2.25 3h.764c.125-1.124 1.08-2 2.236-2h1.5c1.156 0 2.111.876 2.236 2h.764C10.99 3 12 4.009 12 5.25V8c2.206 0 4 1.794 4 4z" id="outline"/><g id="iconBg"><path class="icon-vs-action-purple" d="M9 5h1v3.556a3.93 3.93 0 0 1 1-.414V5.25C11 4.561 10.44 4 9.75 4H8v-.75C8 2.561 7.439 2 6.75 2h-1.5C4.561 2 4 2.561 4 3.25V4H2.25C1.561 4 1 4.561 1 5.25v5.5c0 .69.561 1.25 1.25 1.25H8c0-1.006.385-1.915 1-2.618V5zm-6 6H2V5h1v6zm4-7H5v-.75A.25.25 0 0 1 5.25 3h1.5a.25.25 0 0 1 .25.25V4z"/><path class="st0" d="M12 9c-1.654 0-3 1.346-3 3s1.346 3 3 3 3-1.346 3-3-1.346-3-3-3zm-2.217 3c0-1.223.994-2.217 2.217-2.217.47 0 .904.148 1.264.398l-3.082 3.082A2.202 2.202 0 0 1 9.783 12zM12 14.217c-.47 0-.904-.148-1.264-.398l3.082-3.082c.25.359.398.794.398 1.264A2.217 2.217 0 0 1 12 14.217z"/></g><g id="iconFg"><path class="icon-vs-fg" d="M9 9.382V5h1v3.556a4.001 4.001 0 0 0-1 .826zM2 11h1V5H2v6z"/></g></svg>