<svg xmlns="http://www.w3.org/2000/svg" viewBox="0 0 16 16"><style>.icon-canvas-transparent{opacity:0;fill:#f6f6f6}.icon-vs-out{fill:#f6f6f6}.icon-vs-fg{fill:#f0eff1}.icon-vs-action-purple{fill:#652d90}.icon-vs-bg{fill:#424242}</style><path class="icon-canvas-transparent" d="M16 16H0V0h16v16z" id="canvas"/><path class="icon-vs-out" d="M16 11v5H9v-3H2.25A2.253 2.253 0 0 1 0 10.75v-5.5A2.252 2.252 0 0 1 2.25 3h.764c.125-1.124 1.08-2 2.236-2h1.5c1.156 0 2.111.876 2.236 2h.764C10.99 3 12 4.009 12 5.25v2.799a5.85 5.85 0 0 1 .595-.031C16 8.018 16 11.021 16 11z" id="outline"/><g id="iconBg"><path class="icon-vs-action-purple" d="M9 11V5h1v3.855c.26-.231.586-.435 1-.584V5.25C11 4.561 10.44 4 9.75 4H8v-.75C8 2.561 7.439 2 6.75 2h-1.5C4.561 2 4 2.561 4 3.25V4H2.25C1.561 4 1 4.561 1 5.25v5.5c0 .69.561 1.25 1.25 1.25H9v-1zm-6 0H2V5h1v6zm4-7H5v-.75A.25.25 0 0 1 5.25 3h1.5a.25.25 0 0 1 .25.25V4z"/><path class="icon-vs-bg" d="M9.991 11.576c.132-1.137.183-2.559 2.604-2.559 2.251 0 2.31 1.427 2.396 2.559h-.976c-.014-.754-.157-1.558-1.419-1.558-1.255 0-1.532.82-1.592 1.558H9.991zM15 12v3h-5v-3h5zm-2 1h-1v1h1v-1z"/></g><g id="iconFg"><path class="icon-vs-fg" d="M9 11V5h1v3.855C9.007 9.737 9 11 9 11zm-7 0h1V5H2v6z"/></g></svg>