<svg xmlns="http://www.w3.org/2000/svg" viewBox="0 0 16 16"><style>.icon-canvas-transparent{opacity:0;fill:#f6f6f6}.icon-vs-out{fill:#f6f6f6}.icon-vs-bg{fill:#424242}.icon-vs-action-blue{fill:#00539c}</style><path class="icon-canvas-transparent" d="M16 16H0V0h16v16z" id="canvas"/><path class="icon-vs-out" d="M2.001 0v4H3.11L0 7.18v2.295l.979.979L2.063 9.37V12h-.062v4h13V0h-13zm9 12H5.038V9.37l1.084 1.084L8.235 8.34 3.99 4h7.011v8z" id="outline"/><path class="icon-vs-bg" d="M3 15h2v-2H3v2z" id="iconBg"/><path class="icon-vs-action-blue" d="M14.001 1v14h-7v-2h5V3h-9V1h11zM.271 8.333l.708.707 2.084-2.084V11h.976V6.956L6.122 9.04l.707-.707L3.55 4.981.271 8.333z" id="colorAction"/></svg>