<svg xmlns="http://www.w3.org/2000/svg" viewBox="0 0 16 16"><style>.icon-canvas-transparent{opacity:0;fill:#f6f6f6}.icon-vs-out{fill:#f6f6f6}.icon-vs-bg{fill:#424242}.icon-vs-fg{fill:#f0eff1}.icon-vs-action-blue{fill:#00539c}</style><path class="icon-canvas-transparent" d="M16 0v16H0V0h16z" id="canvas"/><path class="icon-vs-out" d="M16 2v11h-3v3H1V5h.346l-.589-.589A2.575 2.575 0 0 1 0 2.585c0-.691.269-1.34.757-1.828C1.244.27 1.893.001 2.584.001s1.34.269 1.827.756L5.654 2H16z" id="outline"/><path class="icon-vs-fg" d="M5 12h6v2H3V8h1.346L5 8.653V12zm1-2.347V11h5l-4.497-.844L6 9.653zM11 11V8h-.563L11 11zM8.653 5l1 1H12v5h2V5H8.653zM7.471 8.446l1.301.326-.325-1.302-5.375-5.374a.691.691 0 0 0-.976.976l5.375 5.374z" id="iconFg"/><path class="icon-vs-bg" d="M15 3v9h-3v3H2V6h.346l2 2H3v6h8v-2H5V8.653l1 1V11h5V8h-.563l-.281-1.497L9.653 6H12v5h2V5H8.653l-2-2H15z" id="iconBg"/><g id="colorAction"><path class="icon-vs-action-blue" d="M9.253 7.014l-5.55-5.55a1.584 1.584 0 0 0-2.239 2.239l5.55 5.55L10 10l-.747-2.986zM7.471 8.446L2.096 3.072a.69.69 0 0 1 .976-.976L8.447 7.47l.325 1.302-1.301-.326z"/></g></svg>