<svg xmlns="http://www.w3.org/2000/svg" viewBox="0 0 16 16"><style>.st0{opacity:0}.st0,.st1{fill:#f6f6f6}.st2{fill:#c27d1a}.st3{fill:#f0eff1}.st4{fill:#424242}</style><g id="outline"><path class="st0" d="M0 0h16v16H0z"/><path class="st1" d="M10.414 0H5.586L4 1.586V4H1.586L0 5.586v3.828L1.586 11h4.828L8 9.414V7h2.414L12 5.414V1.586z"/></g><g id="color_x5F_importance_1_"><path class="st2" d="M6 5H2L1 6v3l1 1h4l1-1V6L6 5zm0 4H2V8h4v1zm0-2H2V6h4v1zM10 1H6L5 2v2h5v1H7.414L8 5.586V6h2l1-1V2l-1-1zm0 2H6V2h4v1z"/></g><path class="st3" d="M10 4v1H7.414l-1-1H10zm0-2H6v1h4V2zM6 8H2v1h4V8zm0-2H2v1h4V6z" id="icon_x5F_fg"/><g id="not_x5F_bg"><circle class="st1" cx="12" cy="12" r="4"/><path class="st4" d="M12 9c-1.654 0-3 1.346-3 3s1.346 3 3 3 3-1.346 3-3-1.346-3-3-3zm-2.217 3c0-1.223.994-2.217 2.217-2.217.47 0 .904.148 1.264.398l-3.082 3.082A2.202 2.202 0 0 1 9.783 12zM12 14.217c-.47 0-.904-.148-1.264-.398l3.082-3.082c.25.359.398.794.398 1.264A2.217 2.217 0 0 1 12 14.217z"/></g></svg>