<svg xmlns="http://www.w3.org/2000/svg" viewBox="0 0 16 16"><style>.st0{fill:#f6f6f6}.st1{fill:#00539c}.st2{fill:#f0eff1}.st3{fill:#424242}</style><g id="outline"><path class="st0" d="M12 5.414V1.586L10.414 0H5.586L4 1.586V4H0v7h8V7h2.414zM14.607 13.545L16 12.5V11h-2.156l-.6-2h-1.488l-.6 2H9v1.5l1.393 1.045L9.656 16h1.677l1.167-.875 1.167.875h1.677z"/></g><g id="color_x5F_importance"><path class="st1" d="M10 1H6L5 2v2h5v1H8v1h2l1-1V2l-1-1zm0 2H6V2h4v1z"/><path class="st1" d="M1 10h6V5H1v5zm1-3h4v1H2V7z"/></g><g id="icon_x5F_fg"><path class="st2" d="M2 7h4v1H2zM6 2h4v1H6zM8 4h2v1H8z"/></g><path class="st3" d="M13.449 13.164L15 12h-1.9l-.6-2-.6 2H10l1.551 1.164L11 15l1.5-1.125L14 15z" id="not_x5F_bg"/></svg>