<svg xmlns="http://www.w3.org/2000/svg" viewBox="0 0 16 16"><style>.st0{fill:#f6f6f6}.st1{fill:#00539c}.st2{fill:#f0eff1}.st3{fill:#424242}</style><g id="outline"><path class="st0" d="M12 5.414V1.586L10.414 0H5.586L4 1.586V4H0v7h8V7h2.414z"/><circle class="st0" cx="12" cy="12" r="4"/></g><g id="color_x5F_importance"><path class="st1" d="M10 1H6L5 2v2h5v1H8v1h2l1-1V2l-1-1zm0 2H6V2h4v1z"/><path class="st1" d="M1 10h6V5H1v5zm1-3h4v1H2V7z"/></g><g id="icon_x5F_fg"><path class="st2" d="M2 7h4v1H2zM6 2h4v1H6zM8 4h2v1H8z"/></g><path class="st3" d="M12 9c-1.654 0-3 1.346-3 3s1.346 3 3 3 3-1.346 3-3-1.346-3-3-3zm1.587 1.455l-.042-.041a.407.407 0 0 0 .042.041zM9.783 12c0-1.223.994-2.217 2.217-2.217.47 0 .904.148 1.264.398l-3.082 3.082A2.2 2.2 0 0 1 9.783 12zm.63 1.545l.042.043c-.013-.016-.027-.029-.042-.043zm1.587.672c-.47 0-.904-.148-1.264-.398l3.082-3.082c.25.359.398.795.398 1.264A2.217 2.217 0 0 1 12 14.217z" id="not_x5F_bg"/><g id="not_x5F_fg"><path class="st2" d="M9.783 12c0-1.223.994-2.217 2.217-2.217.47 0 .904.148 1.264.398l-3.082 3.082A2.2 2.2 0 0 1 9.783 12zM12 14.217c-.47 0-.904-.148-1.264-.398l3.082-3.082c.25.359.398.795.398 1.264A2.217 2.217 0 0 1 12 14.217z"/></g></svg>