<svg xmlns="http://www.w3.org/2000/svg" viewBox="0 0 16 16"><style>.st0{fill:#f6f6f6}.st1{fill:#424242}.st2{fill:#c27d1a}.st3{fill:#f0eff1}</style><g id="outline"><path class="st0" d="M10.414 0H5.586L4 1.586V4H1.586L0 5.586v3.828L1.586 11h4.828L8 9.414V7h2.414L12 5.414V1.586zM15.92 11c-.124-1.174-.571-2.969-3.326-2.969-2.908 0-3.368 1.84-3.517 2.969H9v5h7"/></g><g id="icon_x5F_bg"><path class="st1" d="M14 12h-4v3h5v-3h-1zm-1 2h-1v-1h1v1zM11.019 11.563c.059-.729.334-1.541 1.575-1.541 1.249 0 1.391.795 1.404 1.541h.966c-.085-1.119-.144-2.531-2.37-2.531-2.396 0-2.445 1.406-2.576 2.531h1.001z"/></g><g id="color_x5F_importance_1_"><path class="st2" d="M6 5H2L1 6v3l1 1h4l1-1V6L6 5zm0 4H2V8h4v1zm0-2H2V6h4v1zM10 1H6L5 2v2h5v1H7.414L8 5.586V6h2l1-1V2l-1-1zm0 2H6V2h4v1z"/></g><g id="icon_x5F_fg"><path class="st3" d="M10 4v1H7.414l-1-1H10zm0-2H6v1h4V2zM6 8H2v1h4V8zm0-2H2v1h4V6zM12 13h1v1h-1z"/></g></svg>