<svg xmlns="http://www.w3.org/2000/svg" viewBox="0 0 16 16"><style>.st0{fill:#f6f6f6}.st1{fill:#424242}.st2{fill:#00539c}.st3{fill:#f0eff1}</style><g id="outline"><path class="st0" d="M15.92 11c-.124-1.174-.571-2.969-3.326-2.969-2.908 0-3.368 1.84-3.517 2.969H9v5h7"/><path class="st0" d="M12 5.414V1.586L10.414 0H5.586L4 1.586V4H0v7h8V7h2.414z"/></g><g id="icon_x5F_bg"><path class="st1" d="M14 12h-4v3h5v-3h-1zM11.019 11.563c.059-.729.334-1.541 1.575-1.541 1.249 0 1.391.795 1.404 1.541h.966c-.085-1.119-.144-2.531-2.37-2.531-2.396 0-2.445 1.406-2.576 2.531h1.001z"/></g><g id="color_x5F_importance"><path class="st2" d="M10 1H6L5 2v2h5v1H8v1h2l1-1V2l-1-1zm0 2H6V2h4v1z"/><path class="st2" d="M1 10h6V5H1v5zm1-3h4v1H2V7z"/></g><g id="icon_x5F_fg"><path class="st3" d="M2 7h4v1H2zM6 2h4v1H6zM8 4h2v1H8zM12 13h1v1h-1z"/></g></svg>