<svg xmlns="http://www.w3.org/2000/svg" viewBox="0 0 16 16"><style>.st0{fill:#f6f6f6}.st1{fill:#f0eff1}.st2{fill:#c27d1a}.st3{fill:#424242}</style><g id="outline"><path class="st0" d="M6.414 4L9 1.414V0H3.382L0 6.764V8h2.382l-2 4h2.532L9.5 5.414V4zM9 16l.005-3.984s-.225-3.984 3.589-3.984c1.532 0 3.406.967 3.406 3.976V16H9z"/><path class="st1" d="M13 14h-1v-.959h1V14z"/></g><path class="st2" d="M4 5l4-4H4L1 7h3.018L2 11h.518l6-6z" id="color_x5F_importance"/><g id="not_x5F_bg"><path class="st3" d="M11.019 11.563c.059-.729.334-1.541 1.575-1.541 1.249 0 1.391.795 1.404 1.541h.966c-.085-1.119-.144-2.531-2.37-2.531-2.396 0-2.445 1.406-2.576 2.531h1.001zM14 12h-4v3h5v-3h-1zm-1 2h-1v-1h1v1z"/></g><path class="st1" d="M12 13h1v1h-1z" id="not_x5F_fg"/></svg>