<svg xmlns="http://www.w3.org/2000/svg" viewBox="0 0 16 16"><style>.st0{fill:#f6f6f6}.st1{fill:#c27d1a}.st2{fill:#424242}.st3{fill:#f0eff1}</style><g id="outline"><path class="st0" d="M6.414 4L9 1.414V0H3.382L0 6.764V8h2.382l-2 4h2.532L9.5 5.414V4z"/><circle class="st0" cx="12" cy="12" r="4"/></g><path class="st1" d="M4 5l4-4H4L1 7h3.018L2 11h.518l6-6z" id="color_x5F_importance"/><path class="st2" d="M12 9c-1.654 0-3 1.346-3 3s1.346 3 3 3 3-1.346 3-3-1.346-3-3-3zm1.587 1.455l-.042-.042a.416.416 0 0 0 .042.042zM9.783 12c0-1.223.994-2.217 2.217-2.217.47 0 .904.148 1.264.398l-3.082 3.082A2.202 2.202 0 0 1 9.783 12zm.63 1.545l.042.042a.416.416 0 0 0-.042-.042zm1.587.672c-.47 0-.904-.148-1.264-.398l3.082-3.082c.25.359.398.794.398 1.264A2.217 2.217 0 0 1 12 14.217z" id="not_x5F_bg"/><g id="not_x5F_fg"><path class="st3" d="M9.783 12c0-1.223.994-2.217 2.217-2.217.47 0 .904.148 1.264.398l-3.082 3.082A2.202 2.202 0 0 1 9.783 12zM12 14.217c-.47 0-.904-.148-1.264-.398l3.082-3.082c.25.359.398.794.398 1.264A2.217 2.217 0 0 1 12 14.217z"/></g></svg>