<svg xmlns="http://www.w3.org/2000/svg" viewBox="0 0 16 16"><style>.st0{opacity:0}.st0,.st1{fill:#f6f6f6}.st2{fill:#424242}.st3{fill:#f0eff1}</style><g id="outline"><path class="st0" d="M0 0h16v16H0z"/><path class="st1" d="M16 11h-2.156l-.6-2h-1.488l-.6 2H11V0H0v11h9v1.5l1.393 1.045L9.656 16h1.677l1.167-.875 1.167.875h1.677l-.737-2.455L16 12.5z"/></g><g id="icon_x5F_bg"><path class="st2" d="M1 1v9h9V1H1zm8 8H2V2h7v7z"/><path class="st2" d="M5 3h1v3H5zM5 7h1v1H5z"/></g><path class="st3" d="M2 2v7h7V2H2zm4 6H5V7h1v1zm0-2H5V3h1v3z" id="icon_x5F_fg"/><path class="st2" d="M13.449 13.163L15 12h-1.9l-.6-2-.6 2H10l1.551 1.163L11 15l1.5-1.125L14 15z" id="not_x5F_bg"/></svg>