<svg xmlns="http://www.w3.org/2000/svg" viewBox="0 0 16 16"><style>.st0{opacity:0}.st0,.st1{fill:#f6f6f6}.st2{fill:#424242}.st3{fill:#f0eff1}</style><g id="outline"><path class="st0" d="M0 0h16v16H0z"/><path class="st1" d="M12 8c-.348 0-.679.059-1 .142V0H0v11h8.142A3.971 3.971 0 0 0 8 12c0 2.207 1.794 4 4 4s4-1.793 4-4c0-2.205-1.794-4-4-4z"/></g><g id="icon_x5F_bg"><path class="st2" d="M5 3h1v3H5zM5 7h1v1H5z"/><path class="st2" d="M10 8.557V1H1v9h7.557A3.993 3.993 0 0 1 10 8.557zM2 2h7v7H2V2z"/></g><path class="st3" d="M2 2v7h7V2H2zm4 6H5V7h1v1zm0-2H5V3h1v3z" id="icon_x5F_fg"/><path class="st2" d="M12 9c-1.654 0-3 1.346-3 3s1.346 3 3 3 3-1.346 3-3-1.346-3-3-3zm1.587 1.455l-.042-.041a.407.407 0 0 0 .042.041zM9.783 12c0-1.223.994-2.217 2.217-2.217.47 0 .904.148 1.264.398l-3.082 3.082A2.2 2.2 0 0 1 9.783 12zm.63 1.545l.042.043c-.013-.016-.027-.029-.042-.043zm1.587.672c-.47 0-.904-.148-1.264-.398l3.082-3.082c.25.359.398.795.398 1.264A2.217 2.217 0 0 1 12 14.217z" id="not_x5F_bg"/><g id="not_x5F_fg"><path class="st3" d="M9.783 12c0-1.223.994-2.217 2.217-2.217.47 0 .904.148 1.264.398l-3.082 3.082A2.2 2.2 0 0 1 9.783 12zM12 14.217c-.47 0-.904-.148-1.264-.398l3.082-3.082c.25.359.398.795.398 1.264A2.217 2.217 0 0 1 12 14.217z"/></g></svg>