<svg xmlns="http://www.w3.org/2000/svg" viewBox="0 0 16 16"><style>.st0{opacity:0}.st0,.st1{fill:#f6f6f6}.st2{fill:#f0eff1}.st3{fill:#424242}</style><g id="outline"><path class="st0" d="M0 0h16v16H0z"/><path class="st1" d="M12.594 8.032c-.642 0-1.16.12-1.594.307V0H0v11h9.086c-.104.58-.082 1.016-.082 1.016L9 16h7v-3.992c0-3.009-1.874-3.976-3.406-3.976z"/><path class="st2" d="M13 14h-1v-.959h1V14z"/></g><g id="icon_x5F_bg"><path class="st3" d="M5 3h1v3H5zM5 7h1v1H5z"/><path class="st3" d="M10 9.039V1H1v9h8.381A3.37 3.37 0 0 1 10 9.039zM2 9V2h7v7H2z"/></g><path class="st2" d="M2 2v7h7V2H2zm4 6H5V7h1v1zm0-2H5V3h1v3z" id="icon_x5F_fg"/><g id="not_x5F_bg"><path class="st3" d="M11.019 11.563c.059-.729.334-1.541 1.575-1.541 1.249 0 1.391.795 1.404 1.541h.966c-.085-1.119-.144-2.531-2.37-2.531-2.396 0-2.445 1.406-2.576 2.531h1.001zM14 12h-4v3h5v-3h-1zm-1 2h-1v-1h1v1z"/></g><path class="st2" d="M12 13h1v1h-1z" id="not_x5F_fg"/></svg>