<svg xmlns="http://www.w3.org/2000/svg" viewBox="0 0 16 16"><style>.icon-canvas-transparent{opacity:0;fill:#f6f6f6}.icon-vs-out{fill:#f6f6f6}.icon-vs-bg{fill:#424242}.icon-vs-fg{fill:#f0eff1}.icon-vs-action-purple{fill:#652d90}</style><path class="icon-canvas-transparent" d="M16 16H0V0h16v16z" id="canvas"/><path class="icon-vs-out" d="M9.755 8.381l-4.464 3.272L.167 8.426v-5.57L5.051.386l4.704 2.481v5.514zm4.83 1.193l-1.084 1.084V5h-2.976v5.658L9.441 9.574 8 11.015v1.359L11.547 16h.932L16 12.401v-1.412l-1.415-1.415z" id="outline"/><path class="icon-vs-bg" d="M11.525 8h.976v1h-.976V8zm.976-1V6h-.976v1h.976zm2.084 3.988l-2.084 2.084V10h-.976v3.072l-2.084-2.084-.707.707 3.279 3.352 3.279-3.352-.707-.707z" id="iconBg"/><path class="icon-vs-fg" d="M4.995 2.188l3.07 1.514L5.201 5.42 2.106 3.654l2.889-1.466zm0 7.356V5.971L1.786 4.178v3.319l3.167 2.064v.016l.008-.008.01.008v-.015l.024-.018zM8.19 4.426L5.614 5.992v3.463L8.19 7.599V4.426z" id="iconFg"/><path class="icon-vs-action-purple" d="M8.755 7.874V3.471L5.041 1.512 1.167 3.471v4.403l4.081 2.57 3.507-2.57zm-3.76-5.686l3.07 1.514L5.201 5.42 2.106 3.654l2.889-1.466zm-.024 7.374v.016l-.01-.008-.008.007v-.015L1.786 7.497V4.178l3.209 1.793v3.573l-.024.018zM8.19 7.599L5.614 9.455V5.992L8.19 4.426v3.173z" id="colorAction"/></svg>