<svg xmlns="http://www.w3.org/2000/svg" viewBox="0 0 16 16"><style>.st0{opacity:0}.st0,.st1{fill:#f6f6f6}.st2{fill:#424242}</style><g id="outline"><path class="st0" d="M0 0h16v16H0z"/><path class="st1" d="M16 13.121L13.121 16H3.879l-3-3 1.354-1.354-2-2L6.879 3H4V0h8v8H9V5.121L4.768 9.354l2 2L5.121 13h6.758l-1.646-1.646 2.121-2.121L16 12.879v.242z"/></g><g id="icon_x5F_bg"><path class="st2" d="M6 14h1v1H6zM8 14h1v1H8zM10 14h1v1h-1zM5.354 14.646L3.707 13l1.647-1.646-.708-.708L2.293 13l2.353 2.354zM14.707 13l-2.353-2.354-.708.708L13.293 13l-1.647 1.646.708.708z"/><path transform="rotate(-45.001 6 6)" class="st2" d="M4.586 5.5h2.828v1H4.586z"/><path transform="rotate(-45.001 3 9)" class="st2" d="M1.586 8.5h2.828v1H1.586z"/><path class="st2" d="M5 1v1h4.293L7.646 3.646l.708.708L10 2.707V7h1V1z"/></g></svg>