<svg xmlns="http://www.w3.org/2000/svg" viewBox="0 0 16 16"><style>.st0{opacity:0}.st0,.st1{fill:#f6f6f6}.st2{fill:#00539c}.st3{fill:#f0eff1}.st4{fill:#424242}</style><g id="outline"><path class="st0" d="M0 0h16v16H0z"/><path class="st1" d="M6.739 0L0 3.369v5.236L4.789 11h.42L12 7.605V2.369L7.263 0zM14.607 13.545L16 12.5V11h-2.156l-.6-2h-1.488l-.6 2H9v1.5l1.393 1.045L9.656 16h1.677l1.167-.875 1.167.875h1.677z"/></g><path class="st2" d="M1 4v4l4 2 6-3V3L7 1 1 4zm4 1L3 4l4-2 2 1-4 2z" id="color_x5F_importance"/><path class="st3" d="M3 4l2 1 4-2-2-1z" id="icon_x5F_fg"/><path class="st4" d="M13.449 13.163L15 12h-1.9l-.6-2-.6 2H10l1.551 1.163L11 15l1.5-1.125L14 15z" id="not_x5F_bg"/></svg>