<svg xmlns="http://www.w3.org/2000/svg" viewBox="0 0 16 16"><defs><style>.icon-canvas-transparent,.icon-vs-out{fill:#f6f6f6;}.icon-canvas-transparent{opacity:0;}.icon-vs-action-blue{fill:#00539c;}.icon-vs-bg{fill:#424242;}</style></defs><title>FieldPrivate_16x</title><g id="canvas"><path class="icon-canvas-transparent" d="M16,0V16H0V0Z"/></g><g id="outline"><path class="icon-vs-out" d="M12,7.605,5.209,11h-.42L0,8.605V3.369L6.739,0h.524L12,2.369ZM15.92,11c-.124-1.174-.571-2.969-3.326-2.969-2.908,0-3.368,1.84-3.517,2.969H9v5h7Z"/></g><g id="iconBg"><path class="icon-vs-action-blue" d="M7,1,1,4V8l4,2,6-3V3ZM5,5,3,4,7,2,9,3Z"/><path class="icon-vs-bg" d="M11.019,11.563h-1c.13-1.125.18-2.532,2.576-2.532,2.226,0,2.285,1.412,2.37,2.532H14c-.014-.747-.155-1.542-1.4-1.542A1.443,1.443,0,0,0,11.019,11.563ZM15,12v3H10V12h5Zm-2,1H12v1h1Z"/></g></svg>