<svg xmlns="http://www.w3.org/2000/svg" viewBox="0 0 16 16"><style>.icon-canvas-transparent{opacity:0;fill:#f6f6f6}.icon-vs-out{fill:#f6f6f6}.icon-vs-bg{fill:#424242}.icon-vs-fg{fill:#f0eff1}</style><path class="icon-canvas-transparent" d="M16 16H0V0h16v16z" id="canvas"/><path class="icon-vs-out" d="M10.42 2l.29-.29L9.001 0h-.822L7 1.179V0H0v15h7v-2h9V2h-5.58zM13 10H7V5.949l1.525 1.525 2.121-2.121L10.294 5H13v5z" id="outline"/><path class="icon-vs-bg" d="M9.296 1.71l-.707-.707-2.56 2.56L8.526 6.06l.707-.707-1.352-1.352h5.147V4H14v7H6V1H1v13h5v-2h9V3H8.007l1.289-1.29zM5 13H2v-3h3v3zm0-4H2V6h3v3zm0-4H2V2h3v3z" id="iconBg"/><path class="icon-vs-fg" d="M5 2v3H2V2h3zM2 9h3V6H2v3zm0 4h3v-3H2v3z" id="iconFg"/></svg>