<svg xmlns="http://www.w3.org/2000/svg" viewBox="0 0 16 16"><style>.icon-canvas-transparent{opacity:0;fill:#f6f6f6}.icon-vs-out{fill:#f6f6f6}.icon-vs-bg{fill:#424242}.icon-vs-fg{fill:#f0eff1}.icon-vs-action-blue{fill:#00539c}</style><path class="icon-canvas-transparent" d="M16 16H0V0h16v16z" id="canvas"/><path class="icon-vs-out" d="M0 5.508v-3h3.754l-.897-.896L4.469 0h1.019l2 2H16v14H1V5.508H0z" id="outline"/><path class="icon-vs-bg" d="M8.488 3l1.008 1.008L7.504 6H10v2H7V6.504l-1 1V8h-.496l-.525.526L4.453 8H3V6h.262l.492-.492H2V15h13V3H8.488zM6 14H3v-2h3v2zm0-3H3V9h3v2zm4 3H7v-2h3v2zm0-3H7V9h3v2zm4 3h-3v-2h3v2zm0-3h-3V9h3v2zm0-3h-3V6h3v2z" id="iconBg"/><path class="icon-vs-fg" d="M3 9h3v2H3V9zm2.504-1H6v-.496L5.504 8zM7 14h3v-2H7v2zM3.262 6H3v.262L3.262 6zM3 14h3v-2H3v2zm0-7.453V8h1.453L3 6.547zM11 6v2h3V6h-3zm-4 5h3V9H7v2zm4 0h3V9h-3v2zm0 3h3v-2h-3v2zM7 6.504V8h3V6H7.504L7 6.504z" id="iconFg"/><path class="icon-vs-action-blue" d="M8.082 4.008L4.979 7.112l-.708-.707 1.896-1.896H1v-1h5.168L4.271 1.612l.707-.707 3.104 3.103z" id="colorAction"/></svg>