<svg xmlns="http://www.w3.org/2000/svg" viewBox="0 0 16 16"><style>.icon-canvas-transparent{opacity:0;fill:#f6f6f6}.icon-vs-out{fill:#f6f6f6}.icon-vs-bg{fill:#424242}.icon-vs-fg{fill:#f0eff1}.icon-vs-action-blue{fill:#00539c}</style><path class="icon-canvas-transparent" d="M16 15.969H0V0h16v15.969z" id="canvas"/><path class="icon-vs-out" d="M0 6V3h3.754l-.897-.896L4.961 0h.035l1.235 1.235L8.674 0h1.044L16 3.314v7.987L9.594 16H9.53l-7.386-4.653V6H0z" id="outline"/><path class="icon-vs-fg" d="M13.925 4.276L9.448 6.962l-1.537-.877L9.496 4.5 7.655 2.659l1.471-.747 4.799 2.364zM4.979 9.018l-.868-.868v2.057l4.947 3.225v.023l.014-.012.014.012v-.023l.04-.025V7.822L7.232 6.764 4.979 9.018zm5.114-1.162v5.41l4.027-2.9V5.221l-4.027 2.635z" id="iconFg"/><path class="icon-vs-bg" d="M9.197.856L6.976 1.98l.735.735 1.416-.719 4.642 2.287-4.322 2.592-1.481-.845-.789.789 1.874 1.046v5.471l-4.864-3.171v-1.94L3.145 7.184v3.611l6.377 4.018L15 10.795V3.917L9.197.856zm4.848 9.471l-3.877 2.792V7.896l3.877-2.537v4.968z" id="iconBg"/><path class="icon-vs-action-blue" d="M8.082 4.5L4.979 7.604l-.708-.708L6.168 5H1V4h5.168L4.271 2.104l.707-.707L8.082 4.5z" id="colorAction"/></svg>