<svg xmlns="http://www.w3.org/2000/svg" viewBox="0 0 16 16"><style>.st0{fill:#f6f6f6}.st1{fill:#424242}.st2{fill:none;stroke:#ccc;stroke-miterlimit:10}.st3{fill:#f0eff1}</style><path class="st0" d="M16 6.253c0-.055-.004-.111-.01-.213A6.223 6.223 0 0 0 9.75 0 6.252 6.252 0 0 0 3.5 6.245c0 .184.01.354.025.528.014.16.037.295.064.468.013.077.04.148.056.224-.15.203-.296.42-.438.67l-.709-.01-.736 2.521h.664l-.646 2.452a1.653 1.653 0 0 0-.24-.017c-.515 0-.858.207-1.055.381a1.4 1.4 0 0 0 .076 2.18c.299.238.697.358 1.182.358.603 0 1.149-.159 1.625-.472.448-.294.835-.732 1.153-1.311.084-.154.166-.331.248-.53.073.152.173.289.296.408a1.49 1.49 0 0 0 1.066.411c.294 0 .577-.061.849-.186.243-.113.49-.302.775-.587.03-.03.067-.067.108-.111.16.253.353.453.573.597.291.191.637.288 1.026.288.395 0 .776-.126 1.122-.364.37-.248.718-.631 1.063-1.168l.353-.551v-.337a6.22 6.22 0 0 0 4-5.834zm-9.851 5.27c-.279 0-.54.067-.768.196l.2-.768.124-.024c.298.252.617.479.959.671l-.01.012a1.533 1.533 0 0 0-.505-.087z" id="outline"/><g id="icon_x5F_bg"><path class="st1" d="M5.028 9.135c.186-.739.432-1.279.739-1.619.186-.213.367-.318.545-.318a.13.13 0 0 1 .087.029.103.103 0 0 1 .035.08c0 .028-.025.084-.076.166a.46.46 0 0 0-.074.231c0 .103.039.19.117.263a.423.423 0 0 0 .297.109.429.429 0 0 0 .323-.135.487.487 0 0 0 .132-.359.513.513 0 0 0-.196-.42C6.826 7.054 6.616 7 6.329 7c-.45 0-.858.128-1.224.385-.367.256-.714.68-1.044 1.273-.115.203-.223.335-.325.393-.103.059-.266.087-.49.084l-.149.511h.627l-.919 3.496c-.152.574-.257.928-.312 1.061a1.268 1.268 0 0 1-.355.499.331.331 0 0 1-.229.085.1.1 0 0 1-.064-.023l-.022-.03c0-.015.022-.044.068-.089.045-.045.068-.115.068-.207a.332.332 0 0 0-.109-.254c-.071-.068-.175-.102-.309-.102a.57.57 0 0 0-.394.132.4.4 0 0 0-.147.309c0 .129.06.24.181.335.119.095.306.142.562.142.404 0 .764-.102 1.077-.309.314-.205.587-.523.822-.95.232-.429.474-1.12.72-2.075l.527-2.02h.634l.158-.512h-.653z"/><path class="st1" d="M9.947 9.891c.047 0 .135.016.258.049.126.033.235.051.331.051A.453.453 0 0 0 11 9.514a.471.471 0 0 0-.132-.354c-.088-.088-.216-.131-.382-.131a.88.88 0 0 0-.416.103c-.13.067-.296.216-.497.442-.149.17-.372.465-.666.889-.117-.521-.317-1-.605-1.435H6.391v.746c.117-.022.527-.353.607-.353.157 0 .285.066.388.197.162.204.388.824.676 1.862-.226.295-.653.79-.737.88-.138.146-.253.24-.342.283a.484.484 0 0 1-.234.054c-.065 0-.175-.034-.324-.106a.694.694 0 0 0-.274-.069.522.522 0 0 0-.379.146.482.482 0 0 0-.147.367c0 .139.045.252.138.342.09.086.215.13.371.13.149 0 .291-.03.423-.091.132-.063.297-.192.497-.393.2-.199.748-.818 1.099-1.253.135.413.396 1.019.494 1.206.099.187.212.322.34.406a.868.868 0 0 0 .479.124.982.982 0 0 0 .566-.196c.252-.168.511-.461.775-.875l-.161-.091c-.182.243-.315.398-.401.459a.36.36 0 0 1-.204.058c-.092 0-.184-.058-.274-.173-.153-.191-.499-1.026-.754-1.901.228-.392.42-.646.575-.766a.58.58 0 0 1 .359-.13z"/><path class="st1" d="M14.99 6.078a5.245 5.245 0 0 0-5.24-5.072 5.25 5.25 0 0 0-5.25 5.25c0 .11.008.217.016.324.006-.004.012-.011.019-.015.285-.2.592-.344.917-.438a4.295 4.295 0 0 1 .347-1.598c.514.151 1.086.295 1.724.404a9.797 9.797 0 0 0-.056.943c-.002.151.02.309.027.462.03.022.072.03.101.054.358.291.559.715.559 1.189 0 .166-.022.315-.061.446h.747l.041.062c.285.021.568.045.866.048l.141.001c.194-.066.393-.111.6-.111.55 0 .895.23 1.089.424l.002.002c.044-.136.103-.281.14-.413a9.548 9.548 0 0 0 2.164-.551 4.307 4.307 0 0 1-1.968 2.485 1.4 1.4 0 0 1-.336.587 1.457 1.457 0 0 1-1.041.428c-.136 0-.277-.016-.43-.047.036.108.071.211.107.308l.156-.21.553.311C13.254 10.816 15 8.75 15 6.255c0-.06-.008-.118-.01-.177zM9.201 1.982a4.3 4.3 0 0 1 .549-.039c.123 0 .244.008.365.019.352.608.709 1.384.916 2.33-.428.029-.85.033-1.277.029a12.741 12.741 0 0 1-1.305-.083c.176-.911.465-1.66.752-2.256zM7.639 4.121c-.52-.091-.994-.205-1.428-.328A4.319 4.319 0 0 1 8.188 2.24a9.835 9.835 0 0 0-.549 1.881zm3.42 3.166a16.72 16.72 0 0 1-1.305.034c-.477-.005-.936-.04-1.379-.092a9.396 9.396 0 0 1-.092-1.345c.004-.289.023-.566.051-.836.451.051.922.085 1.412.09.1.002.201.002.301.002.367 0 .738-.012 1.117-.04.027.254.049.513.053.784.004.434-.053.903-.158 1.403zm.101-5.103a4.302 4.302 0 0 1 2.15 1.642c-.514.177-1 .3-1.463.371a8.61 8.61 0 0 0-.687-2.013zm2.889 4.352a8.8 8.8 0 0 1-2.137.647 6.911 6.911 0 0 0 .064-2.174 9.423 9.423 0 0 0 1.736-.453c.225.521.35 1.096.35 1.699.001.095-.007.188-.013.281z"/></g><g id="not_x5F_fg"><path class="st3" d="M11.977 5.009a9.423 9.423 0 0 0 1.736-.453c.225.521.35 1.096.35 1.699 0 .095-.008.188-.014.28a8.8 8.8 0 0 1-2.137.647 6.911 6.911 0 0 0 .065-2.173zM13.311 3.826c-.514.177-1 .3-1.463.371a8.688 8.688 0 0 0-.688-2.013 4.309 4.309 0 0 1 2.151 1.642zM9.754 7.321c-.477-.005-.936-.04-1.379-.092a9.396 9.396 0 0 1-.092-1.345c.004-.289.023-.566.051-.836.451.051.922.085 1.412.09.1.002.201.002.301.002.367 0 .738-.012 1.117-.04.027.254.049.513.053.784.004.434-.053.902-.158 1.402-.438.032-.868.038-1.305.035zM9.75 1.943c.123 0 .244.008.365.019.352.608.709 1.384.916 2.33-.428.029-.85.033-1.277.029a12.741 12.741 0 0 1-1.305-.083c.176-.911.465-1.66.752-2.256.18-.023.362-.039.549-.039zM8.188 2.24a9.835 9.835 0 0 0-.549 1.881c-.52-.091-.994-.205-1.428-.328A4.319 4.319 0 0 1 8.188 2.24zM9.183 8.547c.145-.129.283-.227.419-.299.092-.048.189-.077.285-.109l-.141-.001c-.298-.003-.581-.027-.866-.048l.303.457zM11.717 8.042c-.037.132-.096.277-.14.413a1.445 1.445 0 0 1 .336 1.521 4.315 4.315 0 0 0 1.968-2.485 9.548 9.548 0 0 1-2.164.551zM6.329 6c.479 0 .861.124 1.165.339-.007-.153-.029-.312-.027-.463.002-.328.025-.64.057-.943a15.056 15.056 0 0 1-1.725-.404 4.315 4.315 0 0 0-.348 1.598c.28-.082.572-.127.878-.127z"/></g></svg>