<svg xmlns="http://www.w3.org/2000/svg" viewBox="0 0 16 16"><style>.icon-canvas-transparent{opacity:0;fill:#f6f6f6}.icon-vs-out{fill:#f6f6f6}.icon-vs-bg{fill:#424242}</style><path class="icon-canvas-transparent" d="M-.044-.029h16v16h-16z" id="canvas"/><path class="icon-vs-out" d="M4.541 13.675l-.894.894-2.307-2.308 5.552-5.552c-.603-1.522-.251-3.322.963-4.536.785-.785 1.83-1.218 2.94-1.218s2.155.433 2.94 1.218a4.164 4.164 0 0 1 0 5.881 4.297 4.297 0 0 1-3.018 1.245A4.15 4.15 0 0 1 9.2 9.015l-.564.566 1.787 1.787-4.095 4.095-1.787-1.788zm6.254-9.457a.886.886 0 0 0-.632.263c-.17.169-.262.393-.262.633s.093.464.262.632c.169.17.394.263.633.263s.464-.093.632-.262a.887.887 0 0 0 .001-1.265.891.891 0 0 0-.634-.264z" id="outline"/><path class="icon-vs-bg" d="M9.008 7.794c1.226.812 2.94.633 4.02-.447A3.158 3.158 0 1 0 8.561 2.88c-1.08 1.08-1.259 2.795-.447 4.02l-5.36 5.36.893.893.893-.893 1.787 1.787.893-.893-1.787-1.787.893-.893 1.787 1.787.893-.893-1.784-1.787 1.786-1.787zm.447-1.34a1.895 1.895 0 1 1 2.68-2.68 1.895 1.895 0 0 1-2.68 2.68z" id="iconBg"/></svg>