<svg xmlns="http://www.w3.org/2000/svg" viewBox="0 0 16 16"><style>.icon-canvas-transparent{opacity:0;fill:#f6f6f6}.icon-vs-out{fill:#f6f6f6}.icon-vs-bg{fill:#424242}.icon-vs-action-blue{fill:#00539c}</style><path class="icon-canvas-transparent" d="M16 16H0V0h16v16z" id="canvas"/><path class="icon-vs-out" d="M16 6v6.999h-1v1.915L13.914 16h-2.828L10 14.914v-1.915H9V6h1V4.414l-2 2-2-2V6h1v6.999H6v1.915L4.914 16H2.086L1 14.914v-1.915H0V6h1V2.586l1 1V1h3.586l1-1h2.828l1 1H14v2.586l1-1V6h1z" id="outline"/><path class="icon-vs-bg" d="M10.5 2.5L8 5 5.5 2.5 8 0l2.5 2.5zM5 7.914V11H4v1h2V7h-.085L5 7.914zm-3 0L1.085 7H1v5h2v-1H2V7.914zm9 0L10.086 7H10v5h2v-1h-1V7.914zM14.914 7L14 7.914V11h-1v1h2V7h-.086z" id="iconBg"/><path class="icon-vs-action-blue" d="M5 13v1.5L3.5 16 2 14.5V13l1 1v-4h1v4l1-1zm8 1v-4h-1v4l-1-1v1.5l1.5 1.5 1.5-1.5V13l-1 1zM6 2H3v4L2 5v1.5L3.5 8 5 6.5V5L4 6V3h1.991L5.5 2.5 6 2zm7 4V2h-3l.5.5-.5.5h2v3l-1-1v1.5L12.5 8 14 6.5V5l-1 1z" id="colorAction"/></svg>