<svg xmlns="http://www.w3.org/2000/svg" viewBox="0 0 16 16"><style>.st0{opacity:0}.st0,.st1{fill:#f6f6f6}.st2{fill:#424242}.st3{fill:#00539c}.st4{fill:#f0eff1}</style><g id="outline"><path class="st0" d="M0 0h16v16H0z"/><path class="st1" d="M11.5 16c-1.914 0-3.6-1.24-4.226-3H5.591A2.988 2.988 0 0 1 3 14.5c-1.654 0-3-1.346-3-3s1.346-2.999 3-2.999c1.088 0 2.066.589 2.591 1.499h1.683C7.9 8.242 9.586 7.001 11.5 7.001c2.482 0 4.5 2.019 4.5 4.499 0 2.482-2.018 4.5-4.5 4.5zM6 8.001l4-4-4-4H0l2 2H0v4h2l-2 2h6z"/></g><path class="st2" d="M11.5 8.001c-1.758 0-3.204 1.308-3.449 2.999H4.929A1.994 1.994 0 0 0 3 9.5a2 2 0 1 0 0 4c.931 0 1.706-.639 1.929-1.5h3.122c.245 1.691 1.691 3 3.449 3 1.93 0 3.5-1.57 3.5-3.5s-1.57-3.499-3.5-3.499zm0 4.999c-.826 0-1.5-.672-1.5-1.5 0-.826.674-1.5 1.5-1.5a1.5 1.5 0 0 1 0 3z" id="icon_x5F_bg"/><path class="st3" d="M8 4.001l-3 3H3l2-2H1v-2h4l-2-2h2z" id="color_x5F_action"/><path class="st4" d="M11.5 13c-.826 0-1.5-.672-1.5-1.5 0-.826.674-1.5 1.5-1.5a1.5 1.5 0 0 1 0 3z" id="icon_x5F_fg"/></svg>