<svg xmlns="http://www.w3.org/2000/svg" viewBox="0 0 16 16"><style>.st0{fill:#f6f6f6}.st1{fill:#00539c}.st2{fill:#f0eff1}.st3{fill:#424242}</style><path class="st0" d="M13.707 8.397C15.068 7.623 16 6.175 16 4.5 16 2.018 13.981 0 11.5 0 9.586 0 7.899 1.24 7.273 3H5.591A2.99 2.99 0 0 0 3 1.5c-1.654 0-3 1.346-3 3s1.346 3 3 3c1.088 0 2.066-.59 2.591-1.5h1.683a4.536 4.536 0 0 0 2.548 2.654A3.994 3.994 0 0 0 8 12c0 2.207 1.794 4 4 4s4-1.793 4-4c0-1.593-.942-2.96-2.293-3.603z" id="outline"/><path class="st1" d="M11.5 1C9.741 1 8.296 2.308 8.051 4H4.929A1.995 1.995 0 0 0 1 4.5a1.995 1.995 0 1 0 3.929.5h3.122c.245 1.691 1.69 3 3.449 3C13.43 8 15 6.43 15 4.5 15 2.569 13.43 1 11.5 1zm0 5A1.501 1.501 0 1 1 13 4.5c0 .826-.673 1.5-1.5 1.5z" id="color_x5F_importance"/><circle class="st2" cx="11.5" cy="4.5" r="1.5" id="icon_x5F_fg"/><path class="st3" d="M12 9c-1.654 0-3 1.346-3 3s1.346 3 3 3 3-1.346 3-3-1.346-3-3-3zm1.587 1.455l-.042-.041a.407.407 0 0 0 .042.041zM9.783 12c0-1.223.994-2.217 2.217-2.217.47 0 .904.148 1.264.398l-3.082 3.082A2.2 2.2 0 0 1 9.783 12zm.63 1.545l.042.043c-.013-.016-.027-.029-.042-.043zm1.587.672c-.47 0-.904-.148-1.264-.398l3.082-3.082c.25.359.398.795.398 1.264A2.217 2.217 0 0 1 12 14.217z" id="not_x5F_bg"/><g id="not_x5F_fg"><path class="st2" d="M9.783 12c0-1.223.994-2.217 2.217-2.217.47 0 .904.148 1.264.398l-3.082 3.082A2.2 2.2 0 0 1 9.783 12zM12 14.217c-.47 0-.904-.148-1.264-.398l3.082-3.082c.25.359.398.795.398 1.264A2.217 2.217 0 0 1 12 14.217z"/></g></svg>