<svg xmlns="http://www.w3.org/2000/svg" viewBox="0 0 16 16"><style>.st0{fill:#f6f6f6}.st1{fill:#00539c}.st2{fill:#f0eff1}.st3{fill:#424242}</style><path class="st0" d="M13.903 8.291A4.494 4.494 0 0 0 16 4.5C16 2.018 13.981 0 11.5 0 9.586 0 7.899 1.24 7.273 3H5.591A2.99 2.99 0 0 0 3 1.5c-1.654 0-3 1.346-3 3s1.346 3 3 3c1.088 0 2.066-.59 2.591-1.5h1.683a4.54 4.54 0 0 0 2.971 2.809c-1.347 1.158-1.239 3.207-1.239 3.207L9 16h7v-3.992c0-2.171-.979-3.269-2.097-3.717z" id="outline"/><path class="st1" d="M11.5 1C9.741 1 8.296 2.308 8.051 4H4.929A1.995 1.995 0 0 0 1 4.5a1.995 1.995 0 1 0 3.929.5h3.122c.245 1.691 1.69 3 3.449 3C13.43 8 15 6.43 15 4.5 15 2.569 13.43 1 11.5 1zm0 5A1.501 1.501 0 1 1 13 4.5c0 .826-.673 1.5-1.5 1.5z" id="color_x5F_importance"/><circle class="st2" cx="11.5" cy="4.5" r="1.5" id="icon_x5F_fg"/><g id="not_x5F_bg"><path class="st3" d="M11.019 11.563c.059-.729.334-1.541 1.575-1.541 1.249 0 1.391.795 1.404 1.541h.966c-.085-1.119-.144-2.531-2.37-2.531-2.396 0-2.445 1.406-2.576 2.531h1.001zM14 12h-4v3h5v-3h-1zm-1 2h-1v-1h1v1z"/></g><g id="not_x5F_fg"><path class="st2" d="M13 14h-1v-.959h1V14z"/><path class="st2" d="M12 13h1v1h-1z"/></g></svg>