<svg xmlns="http://www.w3.org/2000/svg" viewBox="0 0 16 16"><style>.icon-canvas-transparent{opacity:0;fill:#f6f6f6}.icon-vs-out{fill:#f6f6f6}.icon-vs-bg{fill:#424242}</style><path class="icon-canvas-transparent" d="M.011.042h16v16h-16z" id="canvas"/><path class="icon-vs-out" d="M14.904 7.976c.215-.359.328-.79.328-1.276 0-.717-.294-1.333-.851-1.782-.5-.404-1.161-.609-1.966-.609-.678 0-1.291.136-1.824.403l-.551.277v.388a2.286 2.286 0 0 0-.349-.388 2.607 2.607 0 0 0-.921-.519 3.451 3.451 0 0 0-1.077-.161c-.804 0-1.542.213-2.191.633l-.402.26v-.924H3.017l-.268.203a4.219 4.219 0 0 1-1.352.676l-.719.21v2.917s1.167-.141 1.191-.145v3.864H10.502v-.25c.486.225 1.049.347 1.738.347.903 0 1.646-.227 2.209-.675.622-.495.951-1.195.951-2.024 0-.537-.17-1.026-.496-1.425z" id="outline"/><path class="icon-vs-bg" d="M4.1 5.278v5.727H2.87V6.668c-.067.06-.147.117-.24.17a2.542 2.542 0 0 1-.952.318V6.117a5.25 5.25 0 0 0 1.676-.839H4.1zm3.027 4.703h2.375v1.023H5.775v-.422c0-.287.048-.544.145-.771.097-.229.218-.433.363-.613.146-.182.306-.342.479-.48.173-.141.338-.266.494-.378.164-.117.308-.229.432-.336.124-.107.227-.213.312-.318s.147-.212.189-.32.063-.224.063-.346c0-.24-.067-.42-.203-.543s-.343-.184-.621-.184c-.481 0-.942.191-1.383.574V5.781a2.968 2.968 0 0 1 1.648-.473c.284 0 .538.037.764.111s.416.181.572.32.276.305.358.501.123.416.123.659a1.868 1.868 0 0 1-.436 1.234c-.132.164-.283.314-.455.451s-.35.269-.535.397c-.125.088-.245.175-.361.263a3.25 3.25 0 0 0-.307.258 1.347 1.347 0 0 0-.211.248.425.425 0 0 0-.078.231zm3.703.84V9.746c.375.273.813.41 1.313.41.315 0 .561-.068.736-.203a.674.674 0 0 0 .264-.566.642.642 0 0 0-.326-.578c-.218-.136-.517-.203-.897-.203h-.52V7.66h.48c.729 0 1.094-.242 1.094-.727 0-.456-.28-.684-.84-.684-.375 0-.739.121-1.094.363V5.606c.394-.198.852-.297 1.375-.297.573 0 1.019.129 1.338.387s.479.592.479 1.004c0 .732-.371 1.19-1.113 1.375v.02c.396.049.708.193.938.432s.343.529.343.876c0 .523-.191.938-.574 1.242s-.911.457-1.586.457c-.578 0-1.048-.094-1.41-.281z" id="iconBg"/></svg>