<svg xmlns="http://www.w3.org/2000/svg" viewBox="0 0 16 16"><style>.st0{fill:#f6f6f6}.st1{fill:#00539c}.st2{fill:#f0eff1}.st3{fill:#424242}</style><g id="outline"><path class="st0" d="M16 4.5C16 2.018 13.981 0 11.5 0 9.586 0 7.899 1.24 7.273 3H5.591A2.99 2.99 0 0 0 3 1.5c-1.654 0-3 1.346-3 3s1.346 3 3 3c1.088 0 2.066-.59 2.591-1.5h1.683c.625 1.758 2.312 3 4.226 3C13.981 9 16 6.98 16 4.5zM13.244 9h-1.488l-.6 2H9v1.5l1.393 1.045L9.656 16h1.677l1.167-.875 1.167.875h1.677l-.737-2.455L16 12.5V11h-2.156z"/></g><path class="st1" d="M11.5 1C9.741 1 8.296 2.308 8.051 4H4.929A1.995 1.995 0 0 0 1 4.5a1.995 1.995 0 1 0 3.929.5h3.122c.245 1.691 1.69 3 3.449 3C13.43 8 15 6.43 15 4.5 15 2.569 13.43 1 11.5 1zm0 5A1.501 1.501 0 1 1 13 4.5c0 .826-.673 1.5-1.5 1.5z" id="color_x5F_importance"/><circle class="st2" cx="11.5" cy="4.5" r="1.5" id="icon_x5F_fg"/><path class="st3" d="M13.449 13.163L15 12h-1.9l-.6-2-.6 2H10l1.551 1.163L11 15l1.5-1.125L14 15z" id="not_x5F_bg"/></svg>