<svg xmlns="http://www.w3.org/2000/svg" viewBox="0 0 16 16"><style>.icon-canvas-transparent{opacity:0;fill:#f6f6f6}.icon-vs-out{fill:#f6f6f6}.icon-vs-fg{fill:#f0eff1}.icon-vs-action-green{fill:#388a34}.icon-vs-action-purple{fill:#652d90}</style><path class="icon-canvas-transparent" d="M16 16H0V0h16v16z" id="canvas"/><path class="icon-vs-out" d="M14.699 3.242v6.613l-5.34 3.915-2.771-1.745-4.542 2.75V5.226l1.169.708V3.23L9.067.27l5.632 2.972z" id="outline"/><path class="icon-vs-fg" d="M12.682 4.137L9.257 6.193l-3.71-2.115 3.454-1.754 3.681 1.813zm.237 1.028L9.964 6.968v4.127l2.955-2.129V5.165zM8.925 7.013L5.063 4.856v2.196l-.075-.045L9 9.437l-.075-.046V7.013zm0 3.596L9 10.563l-.666.404.591.385v-.743z" id="iconFg"/><path class="icon-vs-action-purple" d="M9.057 1.396L4.215 3.845v2.694l.698.423.075.045.075.045V4.856l3.861 2.156V9.39L9 9.437l.075.046.738.447v.142l-.738.447-.075.044-.075.046v.743l-.591-.385-.099.061-.689.417 1.771 1.116L13.7 9.348V3.845L9.057 1.396zm.2 4.797l-3.71-2.115 3.454-1.754 3.681 1.813-3.425 2.056zm3.662 2.772l-2.955 2.129V6.968l2.955-1.803v3.8z" id="iconBg"/><path class="icon-vs-action-green" d="M3.046 7L8 10l-4.954 3V7z" id="colorAction"/></svg>