<svg xmlns="http://www.w3.org/2000/svg" viewBox="0 0 16 16"><style>.icon-canvas-transparent{opacity:0;fill:#f6f6f6}.icon-vs-out{fill:#f6f6f6}.icon-vs-fg{fill:#f0eff1}.icon-vs-green{fill:#393}.icon-white{fill:#fff}.icon-vs-action-purple{fill:#652d90}</style><path class="icon-canvas-transparent" d="M16 16H0V0h16v16z" id="canvas"/><path class="icon-vs-out" d="M16 4v7c0 1.102-.898 2-2 2H8.724c-.621 1.742-2.271 3-4.224 3A4.505 4.505 0 0 1 0 11.5c0-1.061.384-2.023 1-2.793V4c0-1.103.897-2 2-2h2V0h7v2h2c1.102 0 2 .897 2 2z" id="outline"/><path class="icon-vs-fg" d="M4 7.051V4h1v3.051C4.833 7.032 4.671 7 4.5 7s-.333.032-.5.051zM13 4h-1v7h1V4z" id="iconFg"/><path class="icon-vs-green" d="M4.5 8a3.5 3.5 0 1 0 0 7 3.5 3.5 0 0 0 0-7zM3 13v-3l3.5 1.5L3 13z" id="colorAction"/><path class="icon-vs-action-purple" d="M14 3h-3V1H6v2H3a1 1 0 0 0-1 1v3.762a4.467 4.467 0 0 1 2-.711V4h1v3.051c2.244.252 4 2.138 4 4.449 0 .171-.032.334-.051.5H14a1 1 0 0 0 1-1V4a1 1 0 0 0-1-1zm-4 0H7V2h3v1zm3 8h-1V4h1v7z" id="colorImportance"/><path class="icon-white" d="M3 10l3.5 1.5L3 13v-3z" id="notificationFg"/></svg>