<svg xmlns="http://www.w3.org/2000/svg" viewBox="0 0 16 16"><style>.st0{opacity:0}.st0,.st1{fill:#f6f6f6}.st2{fill:none}.st3{fill:#424242}.st4{fill:#f0eff1}</style><g id="outline"><path class="st0" d="M0 0h16v16H0z"/><path class="st1" d="M0 0h16v15H0z"/></g><g id="icon_x5F_bg"><path class="st2" d="M7 10h2v1H7zM10 10h2v1h-2zM7 8h2v1H7zM4 10h2v1H4zM4 6h2v1H4zM4 8h2v1H4zM7 6h2v1H7z"/><path class="st2" d="M2 13h12V2H2v11zM3 3h10v9H3V3z"/><path class="st2" d="M10 8h2v1h-2zM10 6h2v1h-2z"/><path class="st3" d="M13 3H3v9h10V3zm-7 8H4v-1h2v1zm0-2H4V8h2v1zm0-2H4V6h2v1zm3 4H7v-1h2v1zm0-2H7V8h2v1zm0-2H7V6h2v1zm3 4h-2v-1h2v1zm0-2h-2V8h2v1zm0-2h-2V6h2v1z"/><path class="st3" d="M1 1v13h14V1H1zm13 12H2V2h12v11z"/></g><g id="icon_x5F_fg"><path class="st2" d="M3 12h10V3H3v9zm7-6h2v1h-2V6zm0 2h2v1h-2V8zm0 2h2v1h-2v-1zM7 6h2v1H7V6zm0 2h2v1H7V8zm0 2h2v1H7v-1zM4 6h2v1H4V6zm0 2h2v1H4V8zm0 2h2v1H4v-1z"/><path class="st4" d="M10 6h2v1h-2zM7 6h2v1H7zM10 10h2v1h-2zM7 8h2v1H7zM10 8h2v1h-2zM4 10h2v1H4z"/><path class="st4" d="M2 2v11h12V2H2zm11 10H3V3h10v9z"/><path class="st4" d="M4 8h2v1H4zM4 6h2v1H4zM7 10h2v1H7z"/></g></svg>