<svg xmlns="http://www.w3.org/2000/svg" viewBox="0 0 16 16"><style>.st0{fill:#f6f6f6}.st1{fill:#424242}.st2{fill:#f0eff1}</style><path class="st0" d="M0 0v7h3v2H0v7h7v-4h.414L8 11.415V12h8V4H8v.586L7.414 4H7V0z" id="outline"/><g id="icon_x5F_bg"><path class="st1" d="M4.586 6L4 5.414V5H2V2h3v2h1V1H1v5h2zM9 5v.586l1 1V6h4v4h-4v-.586l-1 1V11h6V5zM5 14H2v-3h2v-.414L4.586 10H1v5h5v-3H5z"/><path class="st1" d="M7 5H5l2 2H4v2h3l-2 2h2l3-3z"/></g><g id="icon_x5F_fg"><path class="st2" d="M2 5h2V4h1V2H2zM10 6v.586l1 1v.828l-1 1V10h4V6zM4 11H2v3h3v-2H4z"/></g></svg>