<svg xmlns="http://www.w3.org/2000/svg" viewBox="0 0 16 16"><defs><style>.icon-canvas-transparent,.icon-vs-out{fill:#f6f6f6}.icon-canvas-transparent{opacity:0}.icon-vs-fg{fill:#f0eff1}.icon-vs-bg{fill:#424242}</style></defs><title>JsonFile_16x</title><path class="icon-canvas-transparent" d="M16 16H0V0h16z"/><path class="icon-vs-out" d="M15 4.379V16H2v-.454a2.585 2.585 0 0 1-1.238-2.295v-1.234L0 11.969V8.91l.762-.049V7.646A2.608 2.608 0 0 1 2 5.335V0h8.621z"/><path class="icon-vs-fg" d="M12.793 5H10V2.207zM4 4.892h3.227A3.345 3.345 0 0 1 9 5.359V2H4zM9.683 6a2.834 2.834 0 0 1 .507 1.646v1.215l.757.049v3.058l-.757.047v1.235a3.109 3.109 0 0 1-.1.749H13V6z"/><path class="icon-vs-bg" d="M10.207 1H3v3.961a4.347 4.347 0 0 1 .736-.07H4V2h5v3.359A2.374 2.374 0 0 1 9.683 6H13v8h-2.91a2.548 2.548 0 0 1-.49 1H14V4.793zM10 5V2.207L12.793 5zm-6.253.892H4v1.25l-.244.006c-.277.007-.533.095-.533.683v1.377a1.373 1.373 0 0 1-.59 1.22 1.36 1.36 0 0 1 .59 1.217v1.362a.979.979 0 0 0 .12.59.526.526 0 0 0 .412.137l.245.005v1.249h-.253c-1.641-.018-1.985-.953-1.985-1.734v-1.44c0-.646-.267-.75-.527-.767L1 11.029V9.848l.234-.015c.261-.017.528-.123.528-.786v-1.4c0-.792.344-1.737 1.985-1.755zm5.966 5.152c-.258.017-.522.121-.522.767v1.441c0 .781-.343 1.717-1.976 1.734h-.253v-1.247l.244-.006a.53.53 0 0 0 .414-.141.958.958 0 0 0 .123-.586v-1.361a1.364 1.364 0 0 1 .585-1.217 1.377 1.377 0 0 1-.585-1.22V7.831c0-.588-.259-.676-.537-.683l-.244-.006V5.889h.253c1.633.019 1.976.964 1.976 1.754v1.4c0 .663.265.769.523.786l.233.015v1.182z"/></svg>