<svg xmlns="http://www.w3.org/2000/svg" width="16" height="16"><style type="text/css">.icon-canvas-transparent{opacity:0;fill:#F6F6F6;} .icon-vs-out{fill:#F6F6F6;} .icon-vs-bg{fill:#424242;}</style><path class="icon-canvas-transparent" d="M16 16h-16v-16h16v16z" id="canvas"/><path class="icon-vs-out" d="M5.275 14l-1.741-2.01c-1.941-.149-3.534-1.916-3.534-3.99 0-2.168 1.74-4 3.8-4h3.75l-1.77-2h4.214l1.732 2h.474c2.06 0 3.8 1.832 3.8 4s-1.74 4-3.8 4h-4.48l1.769 2h-4.214zm6.925-5c.353 0 .8-.471.8-1s-.447-1-.8-1h-.48l-1.77 2h2.25zm-8.4-2c-.353 0-.8.471-.8 1 0 .429.293.819.592.952l1.727-1.952h-1.519z" id="outline"/><path class="icon-vs-bg" d="M12.2 5h-.931l-1.732-2h-1.537l1.77 2h-5.97c-1.546 0-2.8 1.453-2.8 3 0 1.548 1.254 3 2.8 3h.2l1.732 2h1.538l-1.77-2h6.7c1.548 0 2.8-1.452 2.8-3 0-1.547-1.252-3-2.8-3zm0 5h-6.663l1.733-2h-1.5l-1.77 2h-.2c-.942 0-1.8-.953-1.8-2 0-1.047.858-2 1.8-2h5.933l-1.733 2h1.5l1.769-2h.931c.943 0 1.8.953 1.8 2 0 1.047-.857 2-1.8 2z" id="iconBg"/></svg>