<svg xmlns="http://www.w3.org/2000/svg" viewBox="0 0 16 16"><style>.st0{opacity:0}.st0,.st1{fill:#f6f6f6}.st2{fill:#424242}</style><g id="outline"><path class="st0" d="M0 0h16v16H0z"/><path class="st1" d="M3.5 7c1.369 0 2.431-.805 3-2H8v2h5V5h1V2H6.5c-.569-1.195-1.631-2-3-2C1.57 0 0 1.57 0 3.5S1.57 7 3.5 7zM13.571 9c-.276 0-.677.055-1.071.305A1.996 1.996 0 0 0 11.429 9C10.112 9 9 10.137 9 11.482c0 .594.196 1.188.561 1.656.293.355 2.246 2.529 2.246 2.529l.297.333h.909l.3-.352s1.836-2.159 2.148-2.535c.343-.442.54-1.037.54-1.631C16 10.137 14.888 9 13.571 9z"/></g><path class="st2" d="M6 3c-.231-1.143-1.291-2-2.5-2a2.5 2.5 0 1 0 0 5C4.709 6 5.769 5.141 6 4h3v2h1V4h1v2h1V4h1V3H6zM3.5 5a1.5 1.5 0 1 1 .001-3.001A1.5 1.5 0 0 1 3.5 5z" id="icon_x5F_bg"/><path class="st2" d="M13.571 10c-.527 0-.86.747-1.071 1.25-.211-.503-.545-1.25-1.071-1.25-.728 0-1.429.664-1.429 1.482 0 .375.127.756.329 1.018.29.35 2.222 2.5 2.222 2.5s1.829-2.15 2.119-2.5c.203-.262.33-.643.33-1.018 0-.818-.7-1.482-1.429-1.482z" id="not_x5F_bg"/></svg>