<svg xmlns="http://www.w3.org/2000/svg" viewBox="0 0 16 16"><style>.st0{fill:#f6f6f6}.st1{fill:#424242}.st2{fill:#f0eff1}</style><g id="outline"><path class="st0" d="M7.5 2c-.569-1.195-1.631-2-3-2C2.57 0 1 1.57 1 3.5c0 .539.133 1.043.352 1.5H0v7h8V7h5V5h1V2H7.5z"/><path class="st0" d="M13.571 9c-.276 0-.677.055-1.071.305A1.996 1.996 0 0 0 11.429 9C10.112 9 9 10.137 9 11.482c0 .594.196 1.188.561 1.656.293.355 2.246 2.529 2.246 2.529l.297.333h.909l.3-.352s1.836-2.159 2.148-2.535c.343-.442.54-1.037.54-1.631C16 10.137 14.888 9 13.571 9z"/></g><g id="icon_x5F_bg"><path class="st1" d="M7 3c-.231-1.143-1.291-2-2.5-2A2.5 2.5 0 0 0 2 3.5c0 .565.194 1.081.512 1.5H4.5a1.5 1.5 0 1 1 .001-3.001A1.5 1.5 0 0 1 4.5 5h2.026c.229-.292.399-.629.474-1h2v2h1V4h1v2h1V4h1V3H7zM1 11h6V6H1v5zm1-3h4v1H2V8z"/></g><path class="st2" d="M2 8h4v1H2z" id="icon_x5F_fg"/><path class="st1" d="M13.571 10c-.527 0-.86.747-1.071 1.25-.211-.503-.545-1.25-1.071-1.25-.728 0-1.429.664-1.429 1.482 0 .375.127.756.329 1.018.29.35 2.222 2.5 2.222 2.5s1.829-2.15 2.119-2.5c.203-.262.33-.643.33-1.018 0-.818-.7-1.482-1.429-1.482z" id="not_x5F_bg"/></svg>