<svg xmlns="http://www.w3.org/2000/svg" viewBox="0 0 16 16"><style>.st0{fill:#f6f6f6}.st1{fill:#424242}.st2{fill:#f0eff1}</style><g id="outline"><path class="st0" d="M7.5 2c-.569-1.195-1.631-2-3-2C2.57 0 1 1.57 1 3.5c0 .539.133 1.043.352 1.5H0v7h8V7h5V5h1V2H7.5z"/><path class="st0" d="M14.607 13.545L16 12.5V11h-2.156l-.6-2h-1.488l-.6 2H9v1.5l1.393 1.045L9.656 16h1.677l1.167-.875 1.167.875h1.677z"/></g><g id="icon_x5F_bg"><path class="st1" d="M7 3c-.231-1.143-1.291-2-2.5-2A2.5 2.5 0 0 0 2 3.5c0 .565.194 1.081.512 1.5H4.5a1.5 1.5 0 1 1 .001-3.001A1.5 1.5 0 0 1 4.5 5h2.026c.229-.292.399-.629.474-1h2v2h1V4h1v2h1V4h1V3H7zM1 11h6V6H1v5zm1-3h4v1H2V8zM13.449 13.163L15 12h-1.9l-.6-2-.6 2H10l1.551 1.163L11 15l1.5-1.125L14 15z"/></g><path class="st2" d="M2 8h4v1H2z" id="icon_x5F_fg"/></svg>