<svg xmlns="http://www.w3.org/2000/svg" viewBox="0 0 16 16"><style>.st0{fill:#f6f6f6}.st1{fill:#424242}</style><g id="outline"><path class="st0" d="M13 7V5h1V2H6.5c-.569-1.195-1.631-2-3-2C1.57 0 0 1.57 0 3.5S1.57 7 3.5 7c1.369 0 2.431-.805 3-2H8v2h5zM16 11h-2.156l-.6-2h-1.488l-.6 2H9v1.5l1.393 1.045L9.656 16h1.677l1.167-.875 1.167.875h1.677l-.737-2.455L16 12.5z"/></g><path class="st1" d="M6 3c-.231-1.143-1.291-2-2.5-2a2.5 2.5 0 1 0 0 5C4.709 6 5.769 5.141 6 4h3v2h1V4h1v2h1V4h1V3H6zM3.5 5a1.5 1.5 0 1 1 .001-3.001A1.5 1.5 0 0 1 3.5 5z" id="icon_x5F_bg"/><path class="st1" d="M13.449 13.163L15 12h-1.9l-.6-2-.6 2H10l1.551 1.163L11 15l1.5-1.125L14 15z" id="not_x5F_bg"/></svg>