<svg xmlns="http://www.w3.org/2000/svg" viewBox="0 0 16 16"><style>.st0{fill:#f6f6f6}.st1{fill:#424242}.st2{fill:#f0eff1}</style><g id="outline"><path class="st0" d="M3.5 7c1.369 0 2.431-.805 3-2H8v2h5V5h1V2H6.5c-.569-1.195-1.631-2-3-2C1.57 0 0 1.57 0 3.5S1.57 7 3.5 7zM9 16l.005-3.984s-.225-3.984 3.589-3.984c1.532 0 3.406.967 3.406 3.976V16H9z"/></g><path class="st1" d="M6 3c-.231-1.143-1.291-2-2.5-2a2.5 2.5 0 1 0 0 5C4.709 6 5.769 5.141 6 4h3v2h1V4h1v2h1V4h1V3H6zM3.5 5a1.5 1.5 0 1 1 .001-3.001A1.5 1.5 0 0 1 3.5 5z" id="icon_x5F_bg"/><g id="not_x5F_bg"><path class="st1" d="M11.019 11.563c.059-.729.334-1.541 1.575-1.541 1.249 0 1.391.795 1.404 1.541h.966c-.085-1.119-.144-2.531-2.37-2.531-2.396 0-2.445 1.406-2.576 2.531h1.001zM14 12h-4v3h5v-3h-1zm-1 2h-1v-1h1v1z"/></g><g id="not_x5F_fg"><path class="st2" d="M13 14h-1v-.959h1V14z"/><path class="st2" d="M12 13h1v1h-1z"/></g></svg>