<svg xmlns="http://www.w3.org/2000/svg" viewBox="0 0 16 16"><style>.st0{fill:#f6f6f6}.st1{fill:#424242}.st2{fill:#f0eff1}</style><g id="outline"><path class="st0" d="M3.5 7c1.369 0 2.431-.805 3-2H8v2h5V5h1V2H6.5c-.569-1.195-1.631-2-3-2C1.57 0 0 1.57 0 3.5S1.57 7 3.5 7z"/><circle class="st0" cx="12" cy="12" r="4"/></g><g id="not_x5F_bg"><path class="st1" d="M6 3c-.231-1.143-1.291-2-2.5-2a2.5 2.5 0 1 0 0 5C4.709 6 5.769 5.141 6 4h3v2h1V4h1v2h1V4h1V3H6zM3.5 5a1.5 1.5 0 1 1 .001-3.001A1.5 1.5 0 0 1 3.5 5zM12 9c-1.654 0-3 1.346-3 3s1.346 3 3 3 3-1.346 3-3-1.346-3-3-3zm1.587 1.455l-.042-.041a.407.407 0 0 0 .042.041zM9.783 12c0-1.223.994-2.217 2.217-2.217.47 0 .904.148 1.264.398l-3.082 3.082A2.2 2.2 0 0 1 9.783 12zm.63 1.545l.042.043c-.013-.016-.027-.029-.042-.043zm1.587.672c-.47 0-.904-.148-1.264-.398l3.082-3.082c.25.359.398.795.398 1.264A2.217 2.217 0 0 1 12 14.217z"/></g><g id="not_x5F_fg"><path class="st2" d="M9.783 12c0-1.223.994-2.217 2.217-2.217.47 0 .904.148 1.264.398l-3.082 3.082A2.2 2.2 0 0 1 9.783 12zM12 14.217c-.47 0-.904-.148-1.264-.398l3.082-3.082c.25.359.398.795.398 1.264A2.217 2.217 0 0 1 12 14.217z"/></g></svg>