<svg xmlns="http://www.w3.org/2000/svg" viewBox="0 0 16 16"><style>.st0{opacity:0}.st0,.st1{fill:#f6f6f6}.st2{fill:#652d90}.st3{fill:#f0eff1;stroke:#652d90;stroke-width:.15;stroke-miterlimit:10}.st4{fill:#424242}.st5{fill:#f0eff1}</style><g id="outline"><path class="st0" d="M0 0h16v16H0z"/><path class="st1" d="M.167 8.426v-5.57L5.051.386l4.704 2.481V8.38l-4.464 3.272L.167 8.426z"/><circle class="st1" cx="12" cy="12" r="4"/></g><path class="st2" d="M8.755 7.874V3.471L5.041 1.512 1.167 3.471v4.403l4.081 2.57 3.507-2.57zm-3.76-5.686l3.07 1.514L5.201 5.42 2.106 3.654l2.889-1.466zm-.024 7.374v.016l-.01-.008-.008.007v-.015L1.786 7.497V4.178l3.209 1.793v3.573l-.024.018zM8.19 7.599L5.614 9.455V5.992L8.19 4.426v3.173z" id="color_x5F_decoration"/><g id="icon_x5F_fg"><path class="st3" d="M4.995 2.188l3.07 1.513L5.201 5.42 2.106 3.654zM4.971 9.562v.015l-.01-.008-.008.008v-.015L1.786 7.497V4.178l3.209 1.793v3.573zM8.19 7.599L5.614 9.455V5.992L8.19 4.426z"/></g><path class="st4" d="M12 9c-1.654 0-3 1.346-3 3s1.346 3 3 3 3-1.346 3-3-1.346-3-3-3zm1.587 1.455l-.042-.042a.416.416 0 0 0 .042.042zM9.783 12c0-1.223.994-2.217 2.217-2.217.47 0 .904.148 1.264.398l-3.082 3.082A2.202 2.202 0 0 1 9.783 12zm.63 1.545l.042.042a.416.416 0 0 0-.042-.042zm1.587.672c-.47 0-.904-.148-1.264-.398l3.082-3.082c.25.359.398.794.398 1.264A2.217 2.217 0 0 1 12 14.217z" id="not_x5F_bg"/><g id="not_x5F_fg"><path class="st5" d="M9.783 12c0-1.223.994-2.217 2.217-2.217.47 0 .904.148 1.264.398l-3.082 3.082A2.202 2.202 0 0 1 9.783 12zM12 14.217c-.47 0-.904-.148-1.264-.398l3.082-3.082c.25.359.398.794.398 1.264A2.217 2.217 0 0 1 12 14.217z"/></g></svg>