<svg xmlns="http://www.w3.org/2000/svg" viewBox="0 0 16 16"><style>.st0{fill:#f6f6f6}.st1{fill:#652d90}.st2{fill:#f0eff1}.st3{fill:#424242}</style><path class="st0" d="M12.594 8.031c-.212 0-.406.017-.594.04V0H0v11h9.087c-.104.58-.082 1.016-.082 1.016L9 16h7v-3.993c0-3.009-1.874-3.976-3.406-3.976z" id="outline"/><g id="color_x5F_importance"><path class="st1" d="M7 1h4v4H7zM1 1h4v4H1zM9.381 10A3.37 3.37 0 0 1 10 9.039V9h.033c.254-.265.574-.492.967-.662V6H1v4h8.381z"/></g><g id="not_x5F_fg"><path class="st2" d="M13 14h-1v-.959h1V14z"/><path class="st3" d="M11.019 11.563c.059-.729.334-1.541 1.575-1.541 1.249 0 1.391.795 1.404 1.541h.966c-.085-1.119-.144-2.531-2.37-2.531-2.396 0-2.445 1.406-2.576 2.531h1.001zM14 12h-4v3h5v-3h-1zm-1 2h-1v-1h1v1z"/><path class="st2" d="M12 13h1v1h-1z"/></g></svg>