<svg xmlns="http://www.w3.org/2000/svg" viewBox="0 0 16 16"><style>.st0{opacity:0}.st0,.st1{fill:#f6f6f6}.st2{fill:#424242}.st3{fill:#f0eff1}</style><g id="outline"><path class="st0" d="M0 0h16v16H0z"/><path class="st1" d="M4 8.882V8c0-.698-.24-1.43-.617-2.002C3.76 5.423 4 4.692 4 4V3h1V0H4C2.952 0 2.192.251 1.677.769.995 1.454.998 2.366 1 3v.998l-1 .065V7l.008.942.992.06v1.087c-.002.545-.005 1.458.677 2.142C2.192 11.748 2.952 12 4 12h1v-2l.078-.967h-1A.486.486 0 0 1 4 8.882zM12 8c-.348 0-.679.059-1 .142v-.14l1-.061V5l-.029-.941L11 3.998V2.911c.002-.545.006-1.458-.677-2.142C9.808.251 9.048 0 8 0H7v2l.097 1.01H8V4c0 .692.24 1.423.617 1.998A3.756 3.756 0 0 0 8 8v.887c-.012.048-.024.109 0 .113H7v3h1c0 2.206 1.794 4 4 4s4-1.794 4-4-1.794-4-4-4z"/></g><g id="icon_x5F_bg"><path class="st2" d="M12 9c-1.654 0-3 1.346-3 3s1.346 3 3 3 3-1.346 3-3-1.346-3-3-3zm1.587 1.455l-.042-.042a.416.416 0 0 0 .042.042zM9.783 12c0-1.223.994-2.217 2.217-2.217.47 0 .904.148 1.264.398l-3.082 3.082A2.202 2.202 0 0 1 9.783 12zm.63 1.545l.042.042a.416.416 0 0 0-.042-.042zm1.587.672c-.47 0-.904-.148-1.264-.398l3.082-3.082c.25.359.398.794.398 1.264A2.217 2.217 0 0 1 12 14.217zM10 8.556V8c0-.947.678-.98 1-1V5c-.297-.02-1-.031-1-1V3c0-.834.083-2-2-2v1c.416 0 1 .16 1 1v1c0 .832.496 1.73 1 2-.504.262-1 1.166-1 2v1s-.167 1-1 1v1c.055 0 .093-.01.146-.011A3.99 3.99 0 0 1 10 8.556zM2 3v1c0 .969-.703.98-1 1v2c.322.02 1 .053 1 1v1c0 .834-.083 2 2 2v-1c-.833 0-1-1-1-1V8c0-.834-.496-1.738-1-2 .504-.27 1-1.168 1-2V3c0-.84.584-1 1-1V1C1.917 1 2 2.166 2 3z"/></g><g id="icon_x5F_fg"><path class="st3" d="M9.783 12c0-1.223.994-2.217 2.217-2.217.47 0 .904.148 1.264.398l-3.082 3.082A2.202 2.202 0 0 1 9.783 12zM12 14.217c-.47 0-.904-.148-1.264-.398l3.082-3.082c.25.359.398.794.398 1.264A2.217 2.217 0 0 1 12 14.217z"/></g></svg>