<svg xmlns="http://www.w3.org/2000/svg" viewBox="0 0 16 16"><style>.st0{opacity:0}.st0,.st1{fill:#f6f6f6}.st2{fill:#424242}.st3{fill:#f0eff1}</style><g id="outline"><path class="st0" d="M0 0h16v16H0z"/><path class="st1" d="M4 8.882V8c0-.698-.24-1.43-.617-2.002C3.76 5.423 4 4.692 4 4V3h1V0H4C2.952 0 2.192.251 1.677.769.995 1.454.998 2.366 1 3v.998l-1 .065V7l.008.942.992.06v1.087c-.002.545-.005 1.458.677 2.142C2.192 11.748 2.952 12 4 12h1v-2l.078-.967h-1A.486.486 0 0 1 4 8.882zM9 12.563V16h7v-5h-.08c-.124-1.174-.571-2.969-3.326-2.969-.646 0-1.166.094-1.594.248v-.277l1-.061V5l-.029-.941L11 3.998V2.911c.002-.545.006-1.458-.677-2.142C9.808.251 9.048 0 8 0H7v2l.097 1.01H8V4c0 .692.24 1.423.617 1.998A3.756 3.756 0 0 0 8 8v.887c-.012.048-.024.109 0 .113H7v1.635l-.043.063.148 1.251.835.05.154.004c.187 0 .514-.019.876-.102l.03.662z"/></g><g id="icon_x5F_bg"><path class="st2" d="M2 3v1c0 .969-.703.98-1 1v2c.322.02 1 .053 1 1v1c0 .834-.083 2 2 2v-1c-.833 0-1-1-1-1V8c0-.834-.496-1.738-1-2 .504-.27 1-1.168 1-2V3c0-.84.584-1 1-1V1C1.917 1 2 2.166 2 3zM10 8.885V8c0-.947.678-.98 1-1V5c-.297-.02-1-.031-1-1V3c0-.834.083-2-2-2v1c.416 0 1 .16 1 1v1c0 .832.496 1.73 1 2-.504.262-1 1.166-1 2v1s-.167 1-1 1v.939l-.006.008L8 11s.505.03.994-.141L9 10.858v-.001c.041-.021.07-.05.109-.073.097-.601.309-1.338.891-1.899zM14 12h-4v3h5v-3h-1zM11.019 11.563c.059-.729.334-1.541 1.575-1.541 1.249 0 1.391.795 1.404 1.541h.966c-.085-1.119-.144-2.531-2.37-2.531-2.396 0-2.445 1.406-2.576 2.531h1.001z"/></g><path class="st3" d="M12 13h1v1h-1z" id="icon_x5F_fg"/></svg>