<svg xmlns="http://www.w3.org/2000/svg" viewBox="0 0 16 16"><style>.st0{opacity:0}.st0,.st1{fill:#f6f6f6}.st2{fill:#424242}</style><g id="outline"><path class="st0" d="M0 0h16v16H0z"/><path class="st0" d="M0 0h16v16H0z"/><path class="st1" d="M1 3s.004.965 0 1L0 5v2l1 1c.003.029 0 1 0 1 0 1.709 1.317 2.979 3.286 3H5V9H4V8c0-.537-.741-1.613-1-2 .259-.389 1-1.467 1-2V3h1V0H4C2.031.021 1 1.277 1 3zM16 11h-2.156l-.6-2h-1.488l-.6 2h-.817c.43-.523.661-1.21.661-2 0 0-.003-.971 0-1l1-1V5l-1-1c-.004-.035 0-1 0-1C11 1.277 9.969.021 8 0H7v3h1v1c0 .533.741 1.611 1 2-.259.387-1 1.463-1 2v1H7v3h1a3.713 3.713 0 0 0 1-.152v.652l1.393 1.045L9.656 16h1.677l1.167-.875 1.167.875h1.677l-.736-2.455L16 12.5V11z"/></g><g id="icon_x5F_bg"><path class="st2" d="M9 9V8c0-.834.496-1.738 1-2-.504-.27-1-1.168-1-2V3c0-.84-.584-1-1-1V1c2.083 0 2 1.166 2 2v1c0 .969.703.98 1 1v2c-.322.02-1 .053-1 1v1c0 .834.083 2-2 2v-1c.833 0 1-1 1-1zM3 9V8c0-.834-.496-1.738-1-2 .504-.27 1-1.168 1-2V3c0-.84.584-1 1-1V1C1.917 1 2 2.166 2 3v1c0 .969-.703.98-1 1v2c.322.02 1 .053 1 1v1c0 .834-.083 2 2 2v-1c-.833 0-1-1-1-1zM13.449 13.163L15 12h-1.9l-.6-2-.6 2H10l1.551 1.163L11 15l1.5-1.125L14 15z"/></g></svg>