<svg xmlns="http://www.w3.org/2000/svg" viewBox="0 0 16 16"><style>.st0{fill:#f6f6f6}.st1{fill:#424242}.st2{fill:#388a34}.st3{fill:#f0eff1}</style><path class="st0" d="M12 8c-.348 0-.679.058-1 .142V8h1V5h2V2H9V0H0v5h2v3H0v3h8.142A3.926 3.926 0 0 0 8 12a4 4 0 1 0 4-4z" id="outline"/><g id="icon_x5F_bg"><path class="st1" d="M12 9c-1.654 0-3 1.346-3 3s1.346 3 3 3 3-1.346 3-3-1.346-3-3-3zm1.587 1.455l-.042-.042a.416.416 0 0 0 .042.042zM9.783 12c0-1.223.994-2.217 2.217-2.217.47 0 .904.148 1.264.398l-3.082 3.082A2.202 2.202 0 0 1 9.783 12zm.63 1.545l.042.042a.416.416 0 0 0-.042-.042zm1.587.672c-.47 0-.904-.148-1.264-.398l3.082-3.082c.25.359.398.794.398 1.264A2.217 2.217 0 0 1 12 14.217zM10 3h3v1h-3zM3 6h8v1H3zM1 9h4v1H1zM9.38 9H7v1h1.555c.22-.378.497-.714.825-1z"/></g><path class="st2" d="M1 1v3h7V1H1zm6 2H2V2h5v1z" id="color_x5F_importance"/><g id="icon_x5F_fg"><path class="st3" d="M2 2h5v1H2zM9.783 12c0-1.223.994-2.217 2.217-2.217.47 0 .904.148 1.264.398l-3.082 3.082A2.202 2.202 0 0 1 9.783 12zM12 14.217c-.47 0-.904-.148-1.264-.398l3.082-3.082c.25.359.398.794.398 1.264A2.217 2.217 0 0 1 12 14.217z"/></g></svg>