<svg xmlns="http://www.w3.org/2000/svg" viewBox="0 0 16 16"><style>.st0{fill:#f6f6f6}.st1{fill:#424242}.st2{fill:#388a34}.st3{fill:#f0eff1}</style><path class="st0" d="M12.594 8.031c-.642 0-1.16.12-1.594.307V8h1V5h2V2H9V0H0v5h2v3H0v3h9.087c-.104.58-.082 1.016-.082 1.016L9 16h7v-3.993c0-3.009-1.874-3.976-3.406-3.976z" id="outline"/><g id="icon_x5F_bg"><path class="st1" d="M11.019 11.563c.059-.729.334-1.541 1.575-1.541 1.249 0 1.391.795 1.404 1.541h.966c-.085-1.119-.144-2.531-2.37-2.531-2.396 0-2.445 1.406-2.576 2.531h1.001zM14 12h-4v3h5v-3h-1zm-1 2h-1v-1h1v1z"/><g><path class="st1" d="M10 3h3v1h-3zM3 6h8v1H3zM1 9h4v1H1zM10 9.039V9H7v1h2.381A3.37 3.37 0 0 1 10 9.039z"/></g></g><path class="st2" d="M1 1v3h7V1H1zm6 2H2V2h5v1z" id="color_x5F_importance"/><path class="st3" d="M2 2h5v1H2z" id="icon_x5F_fg"/><g id="not_x5F_fg"><path class="st3" d="M13 14h-1v-.959h1V14z"/><path class="st3" d="M12 13h1v1h-1z"/></g></svg>