<svg xmlns="http://www.w3.org/2000/svg" viewBox="0 0 16 16"><style>.st0{fill:#f6f6f6}.st1{fill:#424242}.st2{fill:#388a34}.st3{fill:#f0eff1}</style><path class="st0" d="M16 11h-2.156l-.6-2h-1.488l-.6 2H11V8h1V5h2V2H9V0H0v5h2v3H0v3h9v1.5l1.393 1.045L9.656 16h1.677l1.167-.875 1.167.875h1.677l-.737-2.455L16 12.5z" id="outline"/><g id="icon_x5F_bg"><path class="st1" d="M10 3h3v1h-3zM3 6h8v1H3zM1 9h4v1H1zM7 9h3v1H7z"/></g><path class="st2" d="M1 1v3h7V1H1zm6 2H2V2h5v1z" id="color_x5F_importance"/><path class="st3" d="M2 2h5v1H2z" id="icon_x5F_fg"/><path class="st1" d="M13.449 13.163L15 12h-1.9l-.6-2-.6 2H10l1.551 1.163L11 15l1.5-1.125L14 15z" id="not_x5F_bg"/></svg>