<svg xmlns="http://www.w3.org/2000/svg" viewBox="0 0 16 16"><style>.st0{opacity:0}.st0,.st1{fill:#f6f6f6}.st2{fill:#424242}.st3{fill:#00539c}.st4{fill:#f0eff1}</style><g id="outline"><path class="st0" d="M0 0h16v16H0z"/><path class="st1" d="M16 11h-2.156l-.6-2h-1.488l-.6 2H11V0H0v11h9v1.5l1.393 1.045L9.656 16h1.677l1.167-.875 1.167.875h1.677l-.737-2.455L16 12.5z"/></g><g id="icon_x5F_bg"><path class="st2" d="M13.449 13.163L15 12h-1.9l-.6-2-.6 2H10l1.551 1.163L11 15l1.5-1.125L14 15z"/><path class="st3" d="M1 1v9h9V1H1zm4 8H2V8h3v1zm0-2H2V6h3v1zm0-3H4v1H3V4H2V3h1V2h1v1h1v1zm1-1h3v1H6V3zm1.21 6.004l-1.188-.025 1.921-2.957h1.161L7.21 9.004z"/></g><g id="icon_x5F_fg"><path class="st4" d="M4 2H3v1H2v1h1v1h1V4h1V3H4zM2 6h3v1H2zM2 8h3v1H2zM6 3h3v1H6zM7.21 9.004l-1.188-.025 1.921-2.957h1.161z"/></g></svg>