<svg xmlns="http://www.w3.org/2000/svg" viewBox="0 0 16 16"><style>.st0{opacity:0}.st0,.st1{fill:#f6f6f6}.st2{fill:#f0eff1}.st3{fill:#00539c}.st4{fill:#424242}</style><g id="outline"><path class="st0" d="M0 0h16v16H0z"/><path class="st1" d="M9 16h7l-.08-5c-.124-1.174-.571-2.969-3.326-2.969-.646 0-1.166.095-1.594.248V0H0v11h9v5z"/><path class="st2" d="M12 13h1v1h-1z"/></g><g id="icon_x5F_bg"><path class="st3" d="M10 8.885V1H1v9h8.303c.136-.392.353-.783.697-1.115zM5 9H2V8h3v1zm0-2H2V6h3v1zm0-3H4v1H3V4H2V3h1V2h1v1h1v1zm1-1h3v1H6V3zm.022 5.979l1.921-2.957h1.16L7.21 9.004l-1.188-.025z"/><path class="st4" d="M14 12h-4v3h5v-3h-1zm-1 2h-1v-1h1v1zM11.019 11.563c.059-.729.334-1.541 1.575-1.541 1.249 0 1.391.795 1.404 1.541h.966c-.085-1.119-.144-2.531-2.37-2.531-2.396 0-2.445 1.406-2.576 2.531h1.001z"/></g><g id="icon_x5F_fg"><path class="st2" d="M4 2H3v1H2v1h1v1h1V4h1V3H4zM2 6h3v1H2zM2 8h3v1H2zM6 3h3v1H6zM7.188 9.004L6 8.979l1.922-2.957h1.16zM12 13h1v1h-1z"/></g></svg>