<svg xmlns="http://www.w3.org/2000/svg" viewBox="0 0 16 16"><style>.st0{opacity:0}.st0,.st1{fill:#f6f6f6}.st2{fill:#00539c}.st3{fill:#424242}.st4{fill:#f0eff1}</style><g id="outline"><path class="st0" d="M0 0h16v16H0z"/><path class="st1" d="M12 8c-.348 0-.679.059-1 .142V0H0v11h8.142A3.971 3.971 0 0 0 8 12c0 2.206 1.794 4 4 4s4-1.794 4-4-1.794-4-4-4z"/></g><g id="icon_x5F_bg"><path class="st2" d="M10 8.556V1H1v9h7.556c.35-.6.844-1.094 1.444-1.444zM5 9H2V8h3v1zm0-2H2V6h3v1zm0-3H4v1H3V4H2V3h1V2h1v1h1v1zm1-1h3v1H6V3zm1.943 3.022h1.16L7.21 9.004l-1.189-.025 1.922-2.957z"/><path class="st3" d="M12 9c-1.654 0-3 1.346-3 3s1.346 3 3 3 3-1.346 3-3-1.346-3-3-3zm1.587 1.455l-.042-.042a.416.416 0 0 0 .042.042zM9.783 12c0-1.223.994-2.217 2.217-2.217.47 0 .904.148 1.264.398l-3.082 3.082A2.202 2.202 0 0 1 9.783 12zm.63 1.545l.042.042a.416.416 0 0 0-.042-.042zm1.587.672c-.47 0-.904-.148-1.264-.398l3.082-3.082c.25.359.398.794.398 1.264A2.217 2.217 0 0 1 12 14.217z"/></g><g id="icon_x5F_fg"><path class="st4" d="M4 2H3v1H2v1h1v1h1V4h1V3H4zM2 6h3v1H2zM2 8h3v1H2zM6 3h3v1H6zM7.21 9.004l-1.189-.025 1.922-2.957h1.161zM9.783 12c0-1.223.994-2.217 2.217-2.217.47 0 .904.148 1.264.398l-3.082 3.082A2.202 2.202 0 0 1 9.783 12zM12 14.217c-.47 0-.904-.148-1.264-.398l3.082-3.082c.25.359.398.794.398 1.264A2.217 2.217 0 0 1 12 14.217z"/></g></svg>