<svg xmlns="http://www.w3.org/2000/svg" viewBox="0 0 16 16"><defs><style>.icon-canvas-transparent,.icon-vs-out{fill:#f6f6f6;}.icon-canvas-transparent{opacity:0;}.icon-vs-fg{fill:#f0eff1;}.icon-vs-bg{fill:#424242;}</style></defs><title>Package_16x</title><g id="canvas"><path class="icon-canvas-transparent" d="M16,0V16H0V0Z"/></g><g id="outline"><path class="icon-vs-out" d="M1,16V4H2.654A2.91,2.91,0,0,1,5.071.933a3.025,3.025,0,0,1,.5-.043A2.853,2.853,0,0,1,8,2.377,2.854,2.854,0,0,1,10.435.89a2.953,2.953,0,0,1,.5.043A2.916,2.916,0,0,1,13.353,4H15V16Z"/></g><g id="iconFg"><path class="icon-vs-fg" d="M3,6H7.5v8H3ZM8.5,6v8H13V6Z"/></g><g id="iconBg"><path class="icon-vs-bg" d="M11.9,5a1.816,1.816,0,0,0,.432-.878,1.913,1.913,0,0,0-1.563-2.2C9.588,1.722,9,2.575,8.612,3.342c-.076.151-.295.641-.527,1.16L8,4.685l-.1-.217C7.68,3.962,7.469,3.49,7.4,3.342c-.386-.767-.971-1.62-2.157-1.423a1.91,1.91,0,0,0-1.564,2.2A1.816,1.816,0,0,0,4.106,5H2V15H14V5ZM9.506,3.791c.458-.914.764-.943,1.1-.886a.91.91,0,0,1,.744,1.049,1.071,1.071,0,0,1-.516.68c-.147.1-.387.231-.645.366H8.958L9,4.909C9.222,4.409,9.432,3.937,9.506,3.791Zm-4.33.843a1.07,1.07,0,0,1-.515-.679.908.908,0,0,1,.744-1.05c.33-.057.638-.026,1.095.886.072.142.275.6.492,1.084L7.048,5H5.819A7.356,7.356,0,0,1,5.176,4.634ZM3,14V6H7.5v8Zm10,0H8.5V6H13Z"/></g></svg>