<svg xmlns="http://www.w3.org/2000/svg" viewBox="0 0 16 16"><style>.st0{fill:#f6f6f6}.st1{fill:#424242}</style><g id="outline"><path class="st0" d="M2.5 12A2.503 2.503 0 0 1 .734 7.729l2.358-2.358A4.187 4.187 0 0 1 3 4.5C3 2.018 5.019 0 7.5 0S12 2.018 12 4.5C12 6.98 9.981 9 7.5 9c-.29 0-.579-.031-.872-.094l-2.359 2.359c-.472.473-1.1.735-1.769.735zM13.571 9c-.276 0-.677.055-1.071.305A1.996 1.996 0 0 0 11.429 9C10.112 9 9 10.137 9 11.482c0 .594.196 1.188.561 1.656.293.355 2.246 2.529 2.246 2.529l.297.333h.909l.3-.352s1.836-2.159 2.148-2.535c.343-.442.54-1.037.54-1.631C16 10.137 14.888 9 13.571 9z"/></g><path class="st1" d="M8 6L6 4l2.758-2.758A3.49 3.49 0 0 0 7.5 1 3.5 3.5 0 0 0 4 4.5c0 .41.084.799.214 1.164L1.44 8.438a1.5 1.5 0 1 0 2.122 2.121l2.773-2.773C6.701 7.916 7.09 8 7.5 8A3.5 3.5 0 0 0 11 4.5a3.48 3.48 0 0 0-.242-1.258L8 6z" id="icon_x5F_bg"/><path class="st1" d="M13.571 10c-.527 0-.86.747-1.071 1.25-.211-.503-.545-1.25-1.071-1.25-.728 0-1.429.664-1.429 1.482 0 .375.127.756.329 1.018.29.35 2.222 2.5 2.222 2.5s1.829-2.15 2.119-2.5c.203-.262.33-.643.33-1.018 0-.818-.7-1.482-1.429-1.482z" id="not_x5F_bg"/></svg>