<svg xmlns="http://www.w3.org/2000/svg" viewBox="0 0 16 16"><style>.st0{fill:#f6f6f6}.st1{fill:#424242}.st2{fill:#f0eff1}</style><g id="outline"><path class="st0" d="M2.5 12A2.503 2.503 0 0 1 .734 7.729l2.358-2.358A4.187 4.187 0 0 1 3 4.5C3 2.018 5.019 0 7.5 0S12 2.018 12 4.5C12 6.98 9.981 9 7.5 9c-.29 0-.579-.031-.872-.094l-2.359 2.359c-.472.473-1.1.735-1.769.735zM15.92 11c-.124-1.174-.571-2.969-3.326-2.969-2.908 0-3.368 1.84-3.517 2.969H9v5h7"/></g><path class="st1" d="M8 6L6 4l2.758-2.758A3.49 3.49 0 0 0 7.5 1 3.5 3.5 0 0 0 4 4.5c0 .41.084.799.214 1.164L1.44 8.438a1.5 1.5 0 1 0 2.122 2.121l2.773-2.773C6.701 7.916 7.09 8 7.5 8A3.5 3.5 0 0 0 11 4.5a3.48 3.48 0 0 0-.242-1.258L8 6z" id="icon_x5F_bg"/><g id="not_x5F_bg"><path class="st1" d="M14 12h-4v3h5v-3h-1zm-1 2h-1v-1h1v1zM11.019 11.563c.059-.729.334-1.541 1.575-1.541 1.249 0 1.391.795 1.404 1.541h.966c-.085-1.119-.144-2.531-2.37-2.531-2.396 0-2.445 1.406-2.576 2.531h1.001z"/></g><path class="st2" d="M12 13h1v1h-1z" id="not_x5F_fg"/></svg>