<svg xmlns="http://www.w3.org/2000/svg" viewBox="0 0 16 16"><style>.st0{opacity:0}.st0,.st1{fill:#f6f6f6}.st2{fill:#424242}.st3{fill:#f0eff1}</style><g id="outline"><path class="st0" d="M0 0h16v16H0z"/><path class="st1" d="M15 0H5v3.086L4.914 3H1v.414l.713.713A2.504 2.504 0 0 0 0 6.5V10h3V8h1.914L5 7.914V11H3.086l-2.5 2.5 2.5 2.5H7v-.414L6.414 15H7.5c1.379 0 2.5-1.121 2.5-2.5V11h5V0z"/></g><g id="icon_x5F_bg"><path class="st2" d="M8 12.5c0 .275-.225.5-.5.5H4l1-1H3.5L2 13.5 3.5 15H5l-1-1h3.5c.827 0 1.5-.673 1.5-1.5V11H8v1.5zM8 7h4v1H8zM8 3h4v1H8zM8 5h4v1H8z"/><path class="st2" d="M6 1v3.086l1 1V2h6v7H7V5.914l-1 1V10h8V1zM2 6.5c0-.275.225-.5.5-.5H4L3 7h1.5L6 5.5 4.5 4H3l1 1H2.5C1.673 5 1 5.673 1 6.5V9h1V6.5z"/></g><path class="st3" d="M7 2v3.086l.414.414L7 5.914V9h6V2H7zm5 6H8V7h4v1zm0-2H8V5h4v1zm0-2H8V3h4v1z" id="icon_x5F_fg"/></svg>