<svg xmlns="http://www.w3.org/2000/svg" viewBox="0 0 16 16"><style>.st0{opacity:0}.st0,.st1{fill:#f6f6f6}.st2{fill:#424242}</style><g id="outline"><path class="st0" d="M0 0h16v16H0z"/><path class="st1" d="M16 8h-2V3h-3v1.234c-.039-.044-.07-.097-.111-.138a3.69 3.69 0 0 0-1.26-.817A4.207 4.207 0 0 0 8.091 3c-.639 0-1.221.106-1.727.315-.44.182-.815.442-1.141.748v-.461l-.552-.276a2.215 2.215 0 0 0-.373-.141 5.634 5.634 0 0 0-.394-.096A4.804 4.804 0 0 0 2.966 3c-.406 0-.783.057-1.125.171a2.935 2.935 0 0 0-.944.515A2.49 2.49 0 0 0 0 5.621c0 .258.035.507.101.732l.006.018L0 6.27v3.931l.457.297c.144.092.299.154.47.221.137.051.285.098.461.145.157.039.32.07.488.094.186.027.361.039.528.039.498 0 .921-.063 1.294-.193a2.76 2.76 0 0 0 .988-.574 2.4 2.4 0 0 0 .358-.414c.025.024.043.055.068.08.351.35.773.623 1.26.816.337.131.695.219 1.069.26l1.255 1.357h4.333L11.639 11H16V8zm-7.184-.379a.78.78 0 0 1-.168.293.655.655 0 0 1-.248.165 1.171 1.171 0 0 1-.418.067.896.896 0 0 1-.358-.067.72.72 0 0 1-.256-.183.945.945 0 0 1-.186-.328 1.719 1.719 0 0 1-.084-.569c0-.203.027-.385.08-.541.049-.138.112-.253.196-.35a.687.687 0 0 1 .253-.182.99.99 0 0 1 .399-.073c.156 0 .289.022.4.067a.556.556 0 0 1 .217.153.957.957 0 0 1 .177.327c.055.174.082.386.082.63 0 .23-.027.427-.086.591zm1.85 2.447c.125-.105.225-.238.334-.359v.68l-.334-.321z"/></g><path class="st2" d="M4.476 8.363c0 .21-.037.413-.109.609-.073.194-.191.37-.356.52a1.783 1.783 0 0 1-.643.367c-.262.092-.584.137-.964.137-.122 0-.25-.008-.385-.027a4.25 4.25 0 0 1-.392-.076 4.312 4.312 0 0 1-.351-.11A1.842 1.842 0 0 1 1 9.658V8.605c.095.09.224.168.347.238a2.514 2.514 0 0 0 .78.294c.134.027.261.039.382.039.187 0 .34-.021.461-.064a.77.77 0 0 0 .286-.168.59.59 0 0 0 .143-.234.885.885 0 0 0 .04-.255.721.721 0 0 0-.065-.308.928.928 0 0 0-.201-.275 2.153 2.153 0 0 0-.357-.276 7.305 7.305 0 0 0-.521-.302 3.96 3.96 0 0 1-.617-.39c-.166-.13-.3-.264-.401-.399a1.327 1.327 0 0 1-.213-.423 1.63 1.63 0 0 1 .076-1.113c.094-.199.227-.37.398-.514.173-.143.379-.255.621-.336.241-.08.51-.119.807-.119a3.605 3.605 0 0 1 .753.072c.113.023.214.049.302.074.087.025.154.05.203.074v1.012a1.807 1.807 0 0 0-.575-.304 2.179 2.179 0 0 0-.675-.109c-.147 0-.281.019-.398.055a.88.88 0 0 0-.298.151.692.692 0 0 0-.186.23.68.68 0 0 0-.064.291c0 .119.016.225.05.316a.756.756 0 0 0 .17.261c.079.083.185.164.313.244.129.082.29.173.478.272.231.121.437.245.616.37.18.126.33.258.451.395a1.378 1.378 0 0 1 .37.959zM11 7c0 .38-.045.67-.139.988a2.843 2.843 0 0 1-.404.848c-.18.246-.394.457-.652.628-.256.175-.483.306-.805.393l1.54 1.473H9.135L7.903 10a3.268 3.268 0 0 1-1.166-.219A2.644 2.644 0 0 1 5.216 8.27C5.071 7.914 5 7.44 5 7c0-.428.065-.755.196-1.129.13-.373.324-.699.584-.977.259-.276.58-.495.966-.654.386-.159.833-.24 1.345-.24.426 0 .814.07 1.172.21.355.141.662.339.918.595.26.257.459.566.604.929.145.363.215.824.215 1.266zm-1.098.03a3.07 3.07 0 0 0-.131-.934 1.899 1.899 0 0 0-.375-.681 1.558 1.558 0 0 0-.592-.419 2.022 2.022 0 0 0-.777-.142 1.97 1.97 0 0 0-.803.158 1.676 1.676 0 0 0-.606.444 2.012 2.012 0 0 0-.385.676c-.09.262-.135.55-.135.866 0 .334.047.635.142.902.095.267.226.492.396.675.168.184.367.325.596.423.23.099.48.148.751.148.285 0 .544-.045.779-.137.234-.089.436-.223.606-.4.171-.175.302-.396.394-.66a2.77 2.77 0 0 0 .14-.919zM12 10V4h1v5h2v1h-3z" id="icon_x5F_bg"/></svg>