<svg xmlns="http://www.w3.org/2000/svg" viewBox="0 0 16 16"><defs><style>.icon-canvas-transparent,.icon-vs-out{fill:#f6f6f6;}.icon-canvas-transparent{opacity:0;}.icon-vs-blue{fill:#1ba1e2;}.icon-vs-bg{fill:#424242;}</style></defs><title>SQLDatabase_16x</title><g id="canvas"><path class="icon-canvas-transparent" d="M16,0V16H0V0Z"/></g><g id="outline"><path class="icon-vs-out" d="M15,4v8c0,1.454-1.227,2.678-3.148,3.375V16H5.307l-.128-.064a2.326,2.326,0,0,1-.562-.286,1.926,1.926,0,0,1-.215-.189q-.108-.034-.213-.072a1.735,1.735,0,0,1-.334.3,2.48,2.48,0,0,1-.661.292c-.034.01-.078.007-.114.015H1.688c-.033-.007-.067-.011-.1-.019a3.3,3.3,0,0,1-.4-.124,2.047,2.047,0,0,1-.389-.2l-.449-.3V11.911a2.575,2.575,0,0,1-.035-.425,2.7,2.7,0,0,1,.168-.957,2.34,2.34,0,0,1,.509-.8L1,9.717V4C1,1.72,4.01,0,8,0S15,1.72,15,4Z"/></g><g id="iconBg"><path class="icon-vs-blue" d="M8,1C4.687,1,2,2.343,2,4V9.134a2.582,2.582,0,0,1,.75-.117,3.473,3.473,0,0,1,.81.085,3.237,3.237,0,0,1,.562.187l.49.225a2.626,2.626,0,0,1,.263-.19,2.612,2.612,0,0,1,1.269-.307,2.571,2.571,0,0,1,1.28.313c.038.021.067.054.1.077V9.1h2.944v4.088h1.381V14.3C13.164,13.749,14,12.924,14,12V4C14,2.343,11.313,1,8,1ZM8,6C4.945,6,3,4.815,3,4S4.945,2,8,2s5,1.185,5,2S11.049,6,8,6Z"/></g><g id="notificationBg"><path class="icon-vs-bg" d="M3.9,13.65a1.842,1.842,0,0,1-.029.325,1.42,1.42,0,0,1-.1.326,1.477,1.477,0,0,1-.182.3,1.129,1.129,0,0,1-.276.25,1.48,1.48,0,0,1-.39.168,1.909,1.909,0,0,1-.515.064,2.142,2.142,0,0,1-.287-.022,2.958,2.958,0,0,1-.3-.055,2.411,2.411,0,0,1-.271-.084,1.031,1.031,0,0,1-.2-.1v-.981a2.218,2.218,0,0,0,.212.145,1.965,1.965,0,0,0,.254.133,2,2,0,0,0,.275.1,1.061,1.061,0,0,0,.274.037.587.587,0,0,0,.254-.049.485.485,0,0,0,.17-.129.5.5,0,0,0,.094-.174.66.66,0,0,0,.029-.187.63.63,0,0,0-.045-.245.7.7,0,0,0-.13-.2,1.387,1.387,0,0,0-.207-.178c-.08-.059-.172-.118-.275-.18a2.034,2.034,0,0,1-.714-.634,1.44,1.44,0,0,1-.226-.795,1.688,1.688,0,0,1,.1-.6,1.321,1.321,0,0,1,.291-.463,1.28,1.28,0,0,1,.452-.3,1.573,1.573,0,0,1,.59-.106,2.506,2.506,0,0,1,.576.057A2.207,2.207,0,0,1,3.7,10.2v.91a1.409,1.409,0,0,0-.178-.1,1.952,1.952,0,0,0-.212-.086,1.794,1.794,0,0,0-.232-.06,1.391,1.391,0,0,0-.24-.022.534.534,0,0,0-.218.043A.525.525,0,0,0,2.453,11a.491.491,0,0,0-.111.17.557.557,0,0,0-.04.213.681.681,0,0,0,.137.418,1.522,1.522,0,0,0,.451.367,3.49,3.49,0,0,1,.412.269,1.6,1.6,0,0,1,.318.318,1.392,1.392,0,0,1,.205.394A1.581,1.581,0,0,1,3.9,13.65Zm3.961-1.115a5.012,5.012,0,0,1-.066.845,3.031,3.031,0,0,1-.205.708,1.837,1.837,0,0,1-.352.538,1.327,1.327,0,0,1-.5.333L7.641,16H6.479l-.636-.938a1.367,1.367,0,0,1-.656-.233,1.569,1.569,0,0,1-.465-.516,2.6,2.6,0,0,1-.277-.753,4.579,4.579,0,0,1-.092-.946,4.754,4.754,0,0,1,.111-1.068,2.544,2.544,0,0,1,.333-.82,1.557,1.557,0,0,1,.559-.525,1.615,1.615,0,0,1,.788-.184,1.578,1.578,0,0,1,.788.184,1.463,1.463,0,0,1,.531.518,2.433,2.433,0,0,1,.3.8A5.023,5.023,0,0,1,7.859,12.535Zm-.98.049a5.326,5.326,0,0,0-.043-.711,2.343,2.343,0,0,0-.133-.551.911.911,0,0,0-.233-.355.493.493,0,0,0-.34-.127.547.547,0,0,0-.372.134.939.939,0,0,0-.248.366,2.226,2.226,0,0,0-.136.545,4.868,4.868,0,0,0-.043.672,5.138,5.138,0,0,0,.045.718,2.159,2.159,0,0,0,.144.536.854.854,0,0,0,.245.333.541.541,0,0,0,.345.114.525.525,0,0,0,.344-.119.9.9,0,0,0,.239-.338,2.2,2.2,0,0,0,.14-.529A4.657,4.657,0,0,0,6.879,12.584ZM8.527,15V10.1h.944v4.088h1.381V15Z"/></g></svg>