<?xml version="1.0" encoding="iso-8859-1"?>
<!-- Generator: Adobe Illustrator 21.0.0, SVG Export Plug-In . SVG Version: 6.00 Build 0)  -->
<svg version="1.1" xmlns="http://www.w3.org/2000/svg" xmlns:xlink="http://www.w3.org/1999/xlink" x="0px" y="0px"
	 viewBox="0 0 16 16" style="enable-background:new 0 0 16 16;" xml:space="preserve">
<style type="text/css">
	.icon_x002D_canvas_x002D_transparent{opacity:0;fill:#F6F6F6;}
	.icon_x002D_vs_x002D_out{fill:#F6F6F6;}
	.icon_x002D_vs_x002D_bg{fill:#424242;}
	.icon_x002D_vs_x002D_fg{fill:#F0EFF1;}
	.icon_x002D_vs_x002D_blue{fill:#1BA1E2;}
</style>
<g id="canvas">
	<path class="icon_x002D_canvas_x002D_transparent" d="M16,16H0V0h16V16z"/>
</g>
<g id="outline">
	<path class="icon_x002D_vs_x002D_out" d="M16,3c0,1.654-1.346,3-3,3v7c0,1.654-1.346,3-3,3H3c-0.633,0-1.232-0.202-1.736-0.563
		C0.489,14.986,0,14.303,0,13.5v-3c0-1.036,0.8-1.88,2-2.268V3c0-1.654,1.346-3,3-3h8C14.654,0,16,1.346,16,3z"/>
</g>
<g id="iconBg">
	<path class="icon_x002D_vs_x002D_bg" d="M13,1c-0.013,0-8,0-8,0C3.897,1,3,1.897,3,3v5.033C3.164,8.018,3.328,8,3.5,8
		S3.836,8.018,4,8.033V3c0-0.551,0.449-1,1-1h6.278C11.106,2.295,11,2.634,11,3v6v4c0,0.552-0.449,1-1,1
		c-0.267,0-0.518-0.104-0.707-0.293C9.104,13.518,9,13.267,9,13s0.104-0.518,0.293-0.707C9.482,12.104,9.733,12,10,12
		c0.276,0,0.5-0.224,0.5-0.5S10.276,11,10,11H7v1h1.267C8.093,12.301,8,12.644,8,13c0,0.358,0.101,0.698,0.277,1H6.934
		c-0.099,0.375-0.314,0.711-0.61,1H10c1.103,0,2-0.897,2-2V9V5h1c1.103,0,2-0.897,2-2S14.103,1,13,1z M13,4h-1V3
		c0-0.551,0.449-1,1-1s1,0.449,1,1S13.551,4,13,4z"/>
</g>
<g id="iconFg">
	<path class="icon_x002D_vs_x002D_fg" d="M3.5,9.5c-1.145,0-2,0.527-2,1c0,0.473,0.855,1,2,1s2-0.527,2-1
		C5.5,10.027,4.645,9.5,3.5,9.5z M8,13c0,0.358,0.101,0.698,0.277,1H6.934C6.976,13.839,7,13.672,7,13.5V12h1.267
		C8.093,12.301,8,12.644,8,13z M14,3c0,0.551-0.449,1-1,1h-1V3c0-0.551,0.449-1,1-1S14,2.449,14,3z M5,2h6.278
		C11.106,2.295,11,2.634,11,3v6v4c0,0.552-0.449,1-1,1c-0.267,0-0.518-0.104-0.707-0.293C9.104,13.518,9,13.267,9,13
		s0.104-0.518,0.293-0.707C9.482,12.104,9.733,12,10,12c0.276,0,0.5-0.224,0.5-0.5S10.276,11,10,11H7v-0.5
		c0-1.303-1.262-2.302-3-2.467V3C4,2.449,4.449,2,5,2z"/>
</g>
<g id="colorImportance">
	<path class="icon_x002D_vs_x002D_blue" d="M3.5,9C2.119,9,1,9.671,1,10.5v3C1,14.328,2.119,15,3.5,15S6,14.328,6,13.5v-3
		C6,9.671,4.881,9,3.5,9z M3.5,11.5c-1.145,0-2-0.527-2-1c0-0.473,0.855-1,2-1s2,0.527,2,1C5.5,10.972,4.645,11.5,3.5,11.5z"/>
</g>
</svg>
