<svg xmlns="http://www.w3.org/2000/svg" viewBox="0 0 16 16"><style>.icon-canvas-transparent{opacity:0;fill:#f6f6f6}.icon-vs-out{fill:#f6f6f6}.icon-vs-bg{fill:#424242}.icon-vs-fg{fill:#f0eff1}</style><path class="icon-canvas-transparent" d="M16 16H0V0h16v16z" id="canvas"/><path class="icon-vs-out" d="M16 8A8 8 0 1 1 0 8a8 8 0 0 1 16 0z" id="outline"/><g id="iconBg"><path class="icon-vs-bg" d="M7 3h2v2H7V3zM7 6h2v7H7zM8.032 15c-.175-.004-.357-.005-.535-.018l.07-.965a5.768 5.768 0 0 0 .9-.001l.075.963a6.175 6.175 0 0 1-.51.021zm-1.567-.169a6.918 6.918 0 0 1-1.001-.306l.351-.901c.279.109.569.197.862.262l-.212.945zm3.11-.009l-.217-.942c.29-.067.58-.157.86-.267l.354.899c-.324.127-.66.232-.997.31zm-5.054-.747a7.434 7.434 0 0 1-.863-.584l.596-.761c.24.189.492.36.748.507l-.481.838zm6.988-.019l-.483-.836c.257-.149.507-.321.742-.509l.604.753a6.832 6.832 0 0 1-.863.592zm-8.62-1.275a7.059 7.059 0 0 1-.655-.815l.794-.549c.172.248.362.485.567.703l-.706.661zm10.248-.029l-.707-.657c.203-.219.391-.457.561-.705l.798.544a6.9 6.9 0 0 1-.652.818zM1.706 11.065a6.904 6.904 0 0 1-.387-.972l.92-.289c.091.286.203.567.334.836l-.867.425zm12.604-.035l-.869-.421c.129-.268.24-.55.329-.838l.922.283a6.908 6.908 0 0 1-.382.976zM1.083 9.075A7.118 7.118 0 0 1 1 8.033l.966-.006c.002.301.025.604.072.899l-.955.149zm13.84-.041l-.954-.142c.043-.296.066-.599.066-.9l.674-.052.291.034c0 .367-.026.718-.077 1.06zM2.027 7.127l-.956-.136c.049-.343.124-.687.225-1.022l.924.279a5.948 5.948 0 0 0-.193.879zm11.93-.103a5.798 5.798 0 0 0-.209-.875l.92-.295c.106.334.189.676.243 1.018l-.954.152zM2.544 5.407l-.873-.414c.149-.314.324-.62.519-.91l.8.541a6.173 6.173 0 0 0-.446.783zm10.867-.093a6.115 6.115 0 0 0-.46-.776l.792-.553c.198.285.377.587.532.899l-.864.43zM3.548 3.915l-.713-.652c.235-.257.49-.498.761-.717l.607.751a5.89 5.89 0 0 0-.655.618zm8.834-.075a5.997 5.997 0 0 0-.667-.607l.596-.761c.273.215.534.452.772.704l-.701.664zM4.944 2.784l-.49-.834c.301-.177.616-.332.937-.461l.36.897a5.866 5.866 0 0 0-.807.398zm6.023-.053a5.873 5.873 0 0 0-.814-.384l.343-.903c.326.125.645.275.948.446l-.477.841zm-4.361-.618l-.22-.941c.338-.08.685-.135 1.032-.163l.079.964a6.004 6.004 0 0 0-.891.14zM9.29 2.09a5.934 5.934 0 0 0-.891-.125L8.461 1c.348.023.696.072 1.034.146l-.205.944z"/></g><path class="icon-vs-fg" d="M8 2a6 6 0 1 0 0 12A6 6 0 0 0 8 2zm1 11H7V6h2v7zm0-8H7V3h2v2z" id="iconFg"/></svg>