<svg xmlns="http://www.w3.org/2000/svg" viewBox="0 0 16 16"><defs><style>.icon-canvas-transparent,.icon-vs-out{fill:#f6f6f6;}.icon-canvas-transparent{opacity:0;}.icon-vs-red{fill:#e51400;}</style></defs><title>StatusNo_16x</title><g id="canvas"><path class="icon-canvas-transparent" d="M16,16H0V0H16Z"/></g><g id="outline"><path class="icon-vs-out" d="M8.042,15.9a7.949,7.949,0,1,1,7.925-7.949A7.946,7.946,0,0,1,8.042,15.9Z"/></g><g id="iconBg"><path class="icon-vs-red" d="M8.051.971a6.969,6.969,0,1,0,6.97,6.968A6.969,6.969,0,0,0,8.051.971ZM3.081,7.939a4.932,4.932,0,0,1,.9-2.841l6.735,7.021a4.953,4.953,0,0,1-7.638-4.18Zm9.078,2.791-6.719-7a4.958,4.958,0,0,1,6.719,7Z"/></g></svg>