<svg xmlns="http://www.w3.org/2000/svg" viewBox="0 0 16 16"><defs><style>.icon-canvas-transparent,.icon-vs-out{fill:#f6f6f6;}.icon-canvas-transparent{opacity:0;}.icon-vs-red{fill:#e51400;}.icon-white{fill:#fff;}</style></defs><title>StatusSuppressed_16x</title><g id="canvas"><path class="icon-canvas-transparent" d="M16,0V16H0V0Z"/></g><g id="outline"><path class="icon-vs-out" d="M16,8A8,8,0,1,1,8,0,8,8,0,0,1,16,8Z"/></g><g id="notificationBg"><path class="icon-vs-red" d="M8,1a7,7,0,1,0,7,7A7,7,0,0,0,8,1ZM8,13.414,3.293,8.707,4.707,7.293,7,9.586V3H9V9.586l2.293-2.293,1.414,1.414Z"/></g><g id="notificationFg"><polygon class="icon-white" points="8 13.414 3.293 8.707 4.707 7.293 7 9.586 7 3 9 3 9 9.586 11.293 7.293 12.707 8.707 8 13.414"/></g></svg>