<svg xmlns="http://www.w3.org/2000/svg" viewBox="0 0 16 16"><style>.st0{opacity:0}.st0,.st1{fill:#f6f6f6}.st2{fill:#424242}.st3{fill:#f0eff1}</style><g id="outline"><path class="st0" d="M0 0h16v16H0z"/><path class="st1" d="M16 0H4v6.045C2.409 6.26 1.199 7.468 1 9v6h7v-3h8V0z"/></g><g id="icon_x5F_bg"><path class="st2" d="M10 8h3v1h-3z"/><path class="st2" d="M5 1v5.044c.356.048.69.144 1 .282V3h8v7H8v1h7V1H5z"/><path class="st2" d="M11 6h1v1h-1zM9 9V8H7.704c.145.313.253.645.296 1h1zM7 6h3v1H7zM7 4h3v1H7zM2 14h5v-4H2v4zm2-3h1v2H4v-2zM4.5 7C3.127 7 2.148 7.854 2 9h1c.141-.527.654-1 1.5-1 .82 0 1.353.471 1.5 1h1c-.14-1.146-1.127-2-2.5-2z"/></g><g id="icon_x5F_fg"><path class="st3" d="M6 3v3.326A3.39 3.39 0 0 1 7.704 8H9v1H8v1h6V3H6zm5 3h1v1h-1V6zM7 4h3v1H7V4zm0 3V6h3v1H7zm6 2h-3V8h3v1zM4 11h1v2H4z"/></g></svg>