<svg xmlns="http://www.w3.org/2000/svg" viewBox="0 0 16 16"><style>.st0{fill:#f6f6f6}.st1{fill:#424242}.st2{fill:#f0eff1}.st3{fill:#e51400}.st4{fill:#fff}</style><path class="st0" d="M15 14.297c.616-.771 1-1.734 1-2.797s-.384-2.026-1-2.797V0H0v15h8.703c.771.616 1.734 1 2.797 1s2.026-.384 2.797-1H15v-.703z" id="outline"/><g id="icon_x5F_bg"><path class="st1" d="M3 11h2v1H3zM3 9h4v1H3zM3 7h4v1H3zM8 8h.703c.387-.31.821-.555 1.297-.725V7H8v1zM3 5h4v1H3z"/><path class="st1" d="M1 1v13h6.76a4.51 4.51 0 0 1-.484-1H2V4h11v3.275a4.51 4.51 0 0 1 1 .484V1H1z"/><path class="st1" d="M6 11v1h1.05c-.018-.166-.05-.329-.05-.5s.032-.334.05-.5H6z"/></g><path class="st2" d="M2 4v9h5.275a4.472 4.472 0 0 1-.225-1H6v-1h1.05a4.466 4.466 0 0 1 1.653-3H8V7h2v.275c.472-.167.971-.275 1.5-.275s1.028.108 1.5.275V4H2zm3 8H3v-1h2v1zm2-2.981V10H3V9h4v.019zM7 8H3V7h4v1zm0-2H3V5h4v1z" id="icon_x5F_fg"/><path class="st3" d="M11.5 8a3.5 3.5 0 1 0 0 7 3.5 3.5 0 0 0 0-7zm1.854 4.646l-.707.707-1.147-1.146-1.146 1.147-.707-.707 1.147-1.146-1.147-1.146.707-.707 1.146 1.147 1.146-1.147.707.707-1.146 1.145 1.147 1.146z" id="not_x5F_bg"/><path class="st4" d="M13.354 10.354l-.708-.708-1.146 1.147-1.146-1.147-.708.708 1.147 1.146-1.147 1.146.708.708 1.146-1.147 1.146 1.147.708-.708-1.147-1.146z" id="not_x5F_fg"/></svg>