<svg xmlns="http://www.w3.org/2000/svg" viewBox="0 0 16 16"><style>.st0{fill:#f6f6f6}.st1{fill:#424242}.st2{fill:#00539c}.st3{fill:#f0eff1}</style><path class="st0" d="M8.118 1l.5-1H4.882l-.5 1H1v2H0v1.236l1 2V16h15V1z" id="outline"/><g id="icon_x5F_bg"><path class="st1" d="M9 8h2v1H9zM7 12h6v1H7zM8 6H5.618l-.5 1H8zM9 10h3v1H9zM4 12h2v1H4zM4 8h4v1H4zM3.25 3.264L3.882 2H2v1h1.118z"/><path class="st1" d="M7.618 2l-1.5 3H14v9H3V8H2v7h13V2z"/><path class="st1" d="M4 10h4v1H4z"/></g><path class="st2" d="M5.5 1L3.25 5.5 2.5 4H1l1.5 3H4l3-6H5.5z" id="color_x5F_action"/><path class="st3" d="M6.118 5l-.5 1H8v1H5.118l-.5 1H8v1H4V8H3v6h11V5H6.118zM9 8h2v1H9V8zm0 2h3v1H9v-1zm-5 0h4v1H4v-1zm2 3H4v-1h2v1zm7 0H7v-1h6v1z" id="icon_x5F_fg"/></svg>