<svg xmlns="http://www.w3.org/2000/svg" viewBox="0 0 16 16"><style>.st0{fill:#f6f6f6}.st1{fill:#424242}.st2{fill:#f0eff1}</style><path class="st0" d="M16 0H1v12H0v2c0 1.104.897 2 2 2h3c.737 0 1.375-.405 1.722-1H16V0z" id="outline"/><g id="icon_x5F_bg"><path class="st1" d="M9 7h2v1H9zM8 11h5v1H8zM9 9h3v1H9zM7.722 9c.172.295.278.634.278 1V9h-.278z"/><path class="st1" d="M2 1v7.278A1.978 1.978 0 0 1 3 8V4h11v9H7v1h8V1H2z"/><path class="st1" d="M4 8h4V7H4zM4 5h4v1H4zM6 9H3a1 1 0 0 0-1 1v2.5h1V10h2v3.5a.5.5 0 0 1-1 0V13H1v1a1 1 0 0 0 1 1h3a1 1 0 0 0 1-1v-3h1v-1a1 1 0 0 0-1-1z"/></g><g id="icon_x5F_fg"><path class="st2" d="M3 10v3h1v.5a.5.5 0 0 0 1 0V10H3z"/><path class="st2" d="M3 4v4h1V7h4v1H6a1.99 1.99 0 0 1 1.731 1.018L8 9.019V11h5v1H7v1h7V4H3zm6 3h2v1H9V7zM8 6H4V5h4v1zm4 4H9V9h3v1z"/></g></svg>