<svg xmlns="http://www.w3.org/2000/svg" viewBox="0 0 16 16"><style>.st0{fill:#f6f6f6}.st1{fill:#00539c}.st2{fill:#424242}.st3{fill:#f0eff1}</style><path class="st0" d="M9 16h7l-.08-5c-.099-.932-.421-2.241-1.92-2.747V0H0v11h9v5z" id="outline"/><g id="color_x5F_importance"><path class="st1" d="M1 6h4v4H1zM1 1h12v3H1zM12.594 8.031c.15 0 .27.024.406.035V6H9v4h.303c.341-.975 1.153-1.969 3.291-1.969z"/></g><g id="not_x5F_bg"><path class="st2" d="M11.019 11.563c.059-.729.334-1.541 1.575-1.541 1.249 0 1.391.795 1.404 1.541h.966c-.085-1.119-.144-2.531-2.37-2.531-2.396 0-2.445 1.406-2.576 2.531h1.001zM14 12h-4v3h5v-3h-1zm-1 2h-1v-1h1v1z"/></g><path class="st3" d="M12 13h1v1h-1z" id="not_x5F_fg"/></svg>