<svg xmlns="http://www.w3.org/2000/svg" viewBox="0 0 16 16"><style>.st0{fill:#f6f6f6}.st1{fill:#424242}.st2{fill:#f0eff1}</style><path class="st0" d="M16 0H1v12H0v1c0 .519.143 1.039.413 1.503A3.005 3.005 0 0 0 3 16h4.215a2.78 2.78 0 0 0 2.658-2H16V0z" id="outline"/><g id="icon_x5F_bg"><path class="st1" d="M2 1v4.857c.289-.27.625-.487 1-.634V4h3v1h1V4h3v1.043a2.4 2.4 0 0 1 1 .431V4h3v2h-2.475c.214.292.365.63.432 1H14v2h-2v1h2v2h-3v-2h-1v3h5V1H2z"/><path class="st1" d="M9.571 6H4.143A2.142 2.142 0 0 0 2 8.143V13H1c0 .366.105.705.277 1 .347.596.985 1 1.723 1h4.215C8.201 15 9 14.2 9 13.214V9h2V7.429A1.43 1.43 0 0 0 9.571 6zM8 13.214a.787.787 0 0 1-.785.786H7a1 1 0 0 1-1-1H3V8.143C3 7.513 3.513 7 4.143 7H8v6.214z"/></g><g id="icon_x5F_fg"><path class="st2" d="M11 10v2h3v-2h-2zM7 5h2.571c.147 0 .289.018.429.043V4H7v1zM6 5V4H3v1.223C3.355 5.083 3.739 5 4.143 5H6zM12 7.429V9h2V7h-2.043c.024.14.043.282.043.429zM11 4v1.475c.201.147.378.324.525.525H14V4h-3zM3 8.143V13h3a1 1 0 0 0 1 1h.215A.787.787 0 0 0 8 13.214V7H4.143C3.513 7 3 7.513 3 8.143z"/></g></svg>