<svg xmlns="http://www.w3.org/2000/svg" viewBox="0 0 16 16"><style>.st0{fill:#f6f6f6}.st1{fill:none}.st2{fill:#424242}.st3{fill:#f0eff1}</style><path class="st0" d="M16 0H1v13.175a1.531 1.531 0 0 0-.514.288A1.403 1.403 0 0 0 0 14.523c0 .439.2.838.561 1.119.299.238.697.358 1.182.358.603 0 1.149-.159 1.625-.472.448-.294.835-.732 1.153-1.311.035-.063.068-.146.103-.217h.373c.026.03.041.067.069.096a1.49 1.49 0 0 0 1.066.411c.294 0 .577-.061.849-.186.152-.071.311-.185.475-.32h.72c.083.081.169.158.263.219.291.191.637.288 1.026.288.395 0 .776-.126 1.122-.364.063-.042.123-.093.185-.143H16V0z" id="outline"/><g id="icon_x5F_bg"><path class="st1" d="M11 4h3v2h-3zM3 4h3v2H3zM7 4h3v2H7z"/><path class="st2" d="M2 1v8.834l.499-1.709.501.007V7h1.038c.16-.165.324-.315.497-.436A3.06 3.06 0 0 1 6.329 6c.526 0 .952.132 1.266.393.202.164.347.373.441.607H10v1.096c.158-.042.32-.067.486-.067.2 0 .365.037.514.085V7h3v2h-2.091c.052.148.091.313.091.514 0 .173-.04.332-.092.486H14v2h-2v.424l-.352.551-.017.025H15V1H2zm4 5H3V4h3v2zm4 0H7V4h3v2zm4 0h-3V4h3v2z"/><path class="st2" d="M5.028 9.135c.186-.739.432-1.279.739-1.619.186-.213.367-.318.545-.318a.13.13 0 0 1 .087.029.103.103 0 0 1 .035.08c0 .028-.025.084-.076.166a.46.46 0 0 0-.074.231c0 .103.039.19.117.263a.423.423 0 0 0 .297.109.429.429 0 0 0 .323-.135.487.487 0 0 0 .132-.359.513.513 0 0 0-.196-.42C6.826 7.054 6.616 7 6.329 7c-.45 0-.858.128-1.224.385-.367.256-.714.68-1.044 1.273-.115.203-.223.335-.325.393-.103.059-.266.087-.49.084l-.149.511h.627l-.919 3.496c-.152.574-.257.928-.312 1.061a1.268 1.268 0 0 1-.355.499.331.331 0 0 1-.229.085.1.1 0 0 1-.064-.023l-.022-.03c0-.015.022-.044.068-.089.045-.045.068-.115.068-.207a.332.332 0 0 0-.109-.254c-.071-.068-.175-.102-.309-.102a.57.57 0 0 0-.394.132.4.4 0 0 0-.147.309c0 .129.06.24.181.335.119.095.306.142.562.142.404 0 .764-.102 1.077-.309.314-.205.587-.523.822-.95.232-.429.474-1.12.72-2.075l.527-2.02h.634l.158-.512h-.653z"/><path class="st2" d="M10.486 9.028a.88.88 0 0 0-.416.103c-.13.068-.296.217-.497.443-.149.17-.372.465-.666.889-.117-.521-.317-1-.605-1.435H6.391v.746c.117-.022.527-.353.607-.353.157 0 .285.066.388.197.162.204.388.824.676 1.862-.226.295-.653.79-.737.88-.138.146-.253.24-.342.283a.484.484 0 0 1-.234.054c-.065 0-.175-.034-.324-.106a.694.694 0 0 0-.274-.069.522.522 0 0 0-.379.146.482.482 0 0 0-.147.367c0 .139.045.252.138.342.09.086.215.13.371.13.149 0 .291-.03.423-.091.132-.063.297-.192.497-.393.2-.199.748-.818 1.099-1.253.135.413.396 1.019.494 1.206.099.187.212.322.34.406a.868.868 0 0 0 .479.124.982.982 0 0 0 .566-.196c.252-.168.511-.461.775-.875l-.161-.091c-.182.243-.315.398-.401.459a.36.36 0 0 1-.204.058c-.092 0-.184-.058-.274-.173-.153-.191-.499-1.026-.754-1.901.228-.392.42-.646.575-.766a.584.584 0 0 1 .361-.131c.047 0 .135.016.258.049.126.033.235.051.331.051a.453.453 0 0 0 .332-.133.47.47 0 0 0 .13-.343.471.471 0 0 0-.132-.354c-.088-.089-.216-.132-.382-.132z"/><path class="st2" d="M6.149 11.523c.167 0 .334.028.506.087.069-.078.184-.211.302-.352-.07-.232-.129-.416-.179-.559a1.221 1.221 0 0 1-.195.057L6 10.869v.672c.05-.005.098-.018.149-.018zM10.106 10.943c.036.108.071.211.107.308l.156-.21.631.355v-.486c-.148.049-.303.08-.464.08-.136 0-.277-.015-.43-.047zM2 10.646v1.621l.427-1.621H2z"/></g><g id="icon_x5F_fg"><path class="st3" d="M11 4h3v2h-3zM7 4h3v2H7zM8.153 7.582c0 .166-.022.315-.061.446h.748l.343.519c.145-.129.283-.227.419-.299.128-.067.262-.116.398-.152V7H8.036c.073.181.117.375.117.582zM5.382 11.719c.185-.106.396-.158.618-.178v-.672l-.418.082-.2.768zM3 4h3v2H3zM11 8.113c.259.084.452.216.575.339.119.117.249.302.334.548H14V7h-3v1.113zM11.577 10.563a1.432 1.432 0 0 1-.577.347v.486l1 .564V12h2v-2h-2.092a1.414 1.414 0 0 1-.331.563zM3 8.132l.208.003c.26-.463.536-.833.83-1.135H3v1.132z"/></g></svg>