<svg xmlns="http://www.w3.org/2000/svg" viewBox="0 0 16 16"><style>.icon-canvas-transparent{opacity:0;fill:#f6f6f6}.icon-vs-out{fill:#f6f6f6}.icon-vs-bg{fill:#424242}.icon-vs-fg{fill:#f0eff1}.icon-vs-action-blue{fill:#00539c}</style><path class="icon-canvas-transparent" d="M16 16H0V0h16v16z" id="canvas"/><path class="icon-vs-out" d="M0 16V5.029h4.59L3.232 3.671l2.12-2.12 1.131 1.127V0h3v2.696l1.149-1.145 2.119 2.118-1.354 1.359H16V16H0zm13-2.971v-5h-1l.017 5H13zm-8.983 0l-.017-5H3v5h1.017z" id="outline"/><path class="icon-vs-bg" d="M15 6v9H1V6h4.586l1 1.029L2 7v7.029h12V7l-4.586.029 1-1.029H15zm-3.983 7L11 8.029H5L5.017 13h6z" id="iconBg"/><path class="icon-vs-fg" d="M14 7.029v7H2v-7h4.586l1 1H5v5h6v-5H8.414l1-1H14z" id="iconFg"/><path class="icon-vs-action-blue" d="M7.998 7.024L4.646 3.671l.707-.707 2.13 2.122V1h1v4.104l2.148-2.14.707.707-3.34 3.353z" id="colorAction"/></svg>