<svg xmlns="http://www.w3.org/2000/svg" viewBox="0 0 16 16"><style>.st0{fill:#f6f6f6}.st1{fill:#00539c}.st2{fill:#f0eff1}.st3{fill:#424242}</style><g id="outline"><path class="st0" d="M9 16h7l-.08-5c-.124-1.174-.571-2.968-3.326-2.968-2.908 0-3.368 1.839-3.517 2.968H9v5z"/><path class="st0" d="M12 8V0H3v3H0v8h9V8z"/></g><path class="st1" d="M4 1v3H1v6h7V7h3V1H4zm3 8H2V5h5v4zm3-3H8V4H5V2h5v4z" id="color_x5F_importance"/><g id="icon_x5F_fg"><path class="st2" d="M5 2v2h3v2h2V2z"/><path class="st2" d="M2 5h5v4H2z"/></g><g id="not_x5F_bg"><path class="st3" d="M14 12h-4v3h5v-3h-1zm-1 2h-1v-1h1v1zM11.019 11.531c.059-.729.334-1.541 1.575-1.541 1.249 0 1.391.795 1.404 1.541h.966C14.879 10.412 14.82 9 12.594 9c-2.396 0-2.445 1.406-2.576 2.531h1.001z"/></g><path class="st2" d="M12 13h1v1h-1z" id="not_x5F_fg"/></svg>