<svg xmlns="http://www.w3.org/2000/svg" viewBox="0 0 16 16"><style>.st0{fill:#f6f6f6}.st1{fill:#424242}.st2{fill:#f0eff1}</style><path class="st0" d="M16 11h-2.156l-.6-2H13V0H4v6H0v7h7v-2h2v1.5l1.393 1.045L9.656 16h1.677l1.167-.875 1.167.875h1.677l-.737-2.455L16 12.5z" id="outline"/><g id="icon_x5F_bg"><path class="st1" d="M7 5h3v1H7zM1 12h5V7H1v5zm1-4h3v3H2V8zM7 3h3v1H7z"/><path class="st1" d="M7 10h4.456l.3-1H12V1H5v5h1V2h5v7H7z"/><path class="st1" d="M7 7h3v1H7z"/></g><g id="icon_x5F_fg"><path class="st2" d="M6 2v4h1V5h3v1H7v1h3v1H7v1h4V2H6zm4 2H7V3h3v1zM2 8.002h3v3H2z"/></g><path class="st1" d="M13.449 13.163L15 12h-1.9l-.6-2-.6 2H10l1.551 1.163L11 15l1.5-1.125L14 15z" id="not_x5F_bg"/></svg>