<svg xmlns="http://www.w3.org/2000/svg" viewBox="0 0 16 16"><style>.st0{fill:#f6f6f6}.st1{fill:#424242}.st2{fill:#f0eff1}</style><path class="st0" d="M9 16h7l-.08-5c-.117-1.109-.549-2.755-2.92-2.934V0H4v6H0v7h7v-2h2v5z" id="outline"/><g id="icon_x5F_bg"><path class="st1" d="M1 12h5V7H1v5zm1-4h3v3H2V8zM7 3h3v1H7zM7 5h3v1H7zM7 7h3v1H7z"/><path class="st1" d="M11 8.28a4.173 4.173 0 0 1 1-.217V1H5v5h1V2h5v6.28zM9.303 10c.121-.347.305-.694.584-1H7v1h2.303z"/></g><g id="icon_x5F_fg"><path class="st2" d="M2 8.002h3v3H2zM7 8v1h2.887A2.715 2.715 0 0 1 11 8.28V2H6v4h1V5h3v1H7v1h3v1H7zm0-4V3h3v1H7z"/></g><g id="not_x5F_bg"><path class="st1" d="M14 12h-4v3h5v-3h-1zm-1 2h-1v-1h1v1zM11.019 11.563c.059-.729.334-1.541 1.575-1.541 1.249 0 1.391.795 1.404 1.541h.966c-.085-1.119-.144-2.531-2.37-2.531-2.396 0-2.445 1.406-2.576 2.531h1.001z"/></g><path class="st2" d="M12 13h1v1h-1z" id="not_x5F_fg"/></svg>