<svg xmlns="http://www.w3.org/2000/svg" viewBox="0 0 16 16"><style>.st0{fill:#f6f6f6}.st1{fill:#00539c}.st2{fill:#f0eff1}.st3{fill:#424242}</style><g id="outline"><path class="st0" d="M12 8V0H3v3H0v8h9V8zM16 11h-2.156l-.6-2h-1.488l-.6 2H9v1.5l1.393 1.045L9.656 16h1.677l1.167-.875 1.167.875h1.677l-.737-2.455L16 12.5z"/></g><path class="st1" d="M4 1v3H1v6h7V7h3V1H4zm3 8H2V5h5v4zm3-3H8V4H5V2h5v4z" id="color_x5F_importance"/><g id="icon_x5F_fg"><path class="st2" d="M5 2v2h3v2h2V2z"/><path class="st2" d="M2 5h5v4H2z"/></g><path class="st3" d="M13.449 13.163L15 12h-1.9l-.6-2-.6 2H10l1.551 1.163L11 15l1.5-1.125L14 15z" id="not_x5F_bg"/></svg>