<svg xmlns="http://www.w3.org/2000/svg" viewBox="0 0 16 16"><style>.st0{opacity:0}.st0,.st1{fill:#f6f6f6}.st2{fill:#424242}.st3{fill:#00539c}.st4{fill:#f0eff1}</style><g id="outline"><path class="st0" d="M0 0h16v16H0z"/><path class="st1" d="M12 8c-1.2 0-2.267.542-3 1.382V8h3V0H3v3H0v8h8.142A3.971 3.971 0 0 0 8 12c0 2.206 1.794 4 4 4s4-1.794 4-4-1.794-4-4-4z"/></g><path class="st2" d="M12 9c-1.654 0-3 1.346-3 3s1.346 3 3 3 3-1.346 3-3-1.346-3-3-3zm1.587 1.455l-.042-.042a.416.416 0 0 0 .042.042zM9.783 12c0-1.223.994-2.217 2.217-2.217.47 0 .904.148 1.264.398l-3.082 3.082A2.202 2.202 0 0 1 9.783 12zm.63 1.545l.042.042a.416.416 0 0 0-.042-.042zm1.587.672c-.47 0-.904-.148-1.264-.398l3.082-3.082c.25.359.398.794.398 1.264A2.217 2.217 0 0 1 12 14.217z" id="icon_x5F_bg"/><path class="st3" d="M4 1v3H1v6h7V7h3V1H4zm3 8H2V5h5v4zm3-3H8V4H5V2h5v4z" id="color_x5F_importance"/><g id="icon_x5F_fg"><path class="st4" d="M5 2v2h3v2h2V2z"/><path class="st4" d="M2 5h5v4H2zM9.783 12c0-1.223.994-2.217 2.217-2.217.47 0 .904.148 1.264.398l-3.082 3.082A2.202 2.202 0 0 1 9.783 12zM12 14.217c-.47 0-.904-.148-1.264-.398l3.082-3.082c.25.359.398.794.398 1.264A2.217 2.217 0 0 1 12 14.217z"/></g></svg>