<svg xmlns="http://www.w3.org/2000/svg" viewBox="0 0 16 16"><style>.st0{opacity:0}.st0,.st1{fill:#f6f6f6}.st2{fill:#424242}.st3{fill:#f0eff1}</style><g id="outline"><path class="st0" d="M0 0h16v16H0z"/><path class="st1" d="M13 8.142V0H4v6.018H0V13h7v-2h1.143A3.927 3.927 0 0 0 8 12c0 2.206 1.794 4 4 4s4-1.794 4-4c0-1.858-1.279-3.411-3-3.858z"/></g><g id="icon_x5F_bg"><path class="st2" d="M1 12h5V7H1v5zm1-4h3v3H2V8zM7 5h3v1H7zM7 3h3v1H7z"/><path class="st2" d="M11 8.142A3.971 3.971 0 0 1 12 8V1H5v5h1V2h5v6.142zM9.382 9H7v1h1.556c.221-.378.499-.714.826-1z"/><path class="st2" d="M7 7h3v1H7zM12 9c-1.654 0-3 1.346-3 3s1.346 3 3 3 3-1.346 3-3-1.346-3-3-3zm1.587 1.455l-.042-.042a.416.416 0 0 0 .042.042zM9.783 12c0-1.223.994-2.217 2.217-2.217.47 0 .904.148 1.264.398l-3.082 3.082A2.202 2.202 0 0 1 9.783 12zm.63 1.545l.042.042a.416.416 0 0 0-.042-.042zm1.587.672c-.47 0-.904-.148-1.264-.398l3.082-3.082c.25.359.398.794.398 1.264A2.217 2.217 0 0 1 12 14.217z"/></g><g id="icon_x5F_fg"><path class="st3" d="M7 8v1h2.382A3.977 3.977 0 0 1 11 8.142V2H6v4h1V5h3v1H7v1h3v1H7zm0-4V3h3v1H7zM9.783 12c0-1.223.994-2.217 2.217-2.217.47 0 .904.148 1.264.398l-3.082 3.082A2.202 2.202 0 0 1 9.783 12zM12 14.217c-.47 0-.904-.148-1.264-.398l3.082-3.082c.25.359.398.794.398 1.264A2.217 2.217 0 0 1 12 14.217zM2 8h3v3H2z"/></g></svg>