<svg xmlns="http://www.w3.org/2000/svg" viewBox="0 0 16 16"><style>.st0{fill:#f6f6f6}.st1{fill:#424242}.st2{fill:#00539c}.st3{fill:#f0eff1}</style><g id="outline"><path class="st0" d="M3 0v3H0v8h9V8h3V0z"/><path class="st0" d="M15.92 11c-.124-1.174-.571-2.969-3.326-2.969-2.908 0-3.368 1.84-3.517 2.969H9v5h7"/></g><g id="icon_x5F_bg"><path class="st1" d="M1 10h7V7H7v2H2V4.999h2V4H1z"/><path class="st1" d="M4 1v3h1V1.999h5V6H8v1h3V1z"/></g><path class="st2" d="M4 4h4v3H4z" id="color_x5F_importance"/><g id="not_x5F_bg"><path class="st1" d="M14 12h-4v3h5v-3h-1zm-1 2h-1v-1h1v1zM11.019 11.563c.059-.729.334-1.541 1.575-1.541 1.249 0 1.391.795 1.404 1.541h.966c-.085-1.119-.144-2.531-2.37-2.531-2.396 0-2.445 1.406-2.576 2.531h1.001z"/></g><path class="st3" d="M12 13h1v1h-1z" id="not_x5F_fg"/></svg>