<svg xmlns="http://www.w3.org/2000/svg" viewBox="0 0 16 16"><style>.st0{fill:#f6f6f6}.st1{fill:#424242}.st2{fill:#00539c}</style><g id="outline"><path class="st0" d="M12 8V0H3v3H0v8h9V8zM16 11h-2.156l-.6-2h-1.488l-.6 2H9v1.5l1.393 1.045L9.656 16h1.677l1.167-.875 1.167.875h1.677l-.737-2.455L16 12.5z"/></g><g id="icon_x5F_bg"><path class="st1" d="M1 10h7V7H7v2H2V4.999h2V4H1z"/><path class="st1" d="M4 1v3h1V1.999h5V6H8v1h3V1z"/></g><path class="st2" d="M4 4h4v3H4z" id="color_x5F_importance"/><path class="st1" d="M13.449 13.163L15 12h-1.9l-.6-2-.6 2H10l1.551 1.163L11 15l1.5-1.125L14 15z" id="not_x5F_bg"/></svg>