<svg xmlns="http://www.w3.org/2000/svg" viewBox="0 0 16 16"><style>.st0{fill:#f6f6f6}.st1{fill:#424242}.st2{fill:#00539c}.st3{fill:#f0eff1}</style><path class="st0" d="M12 8a3.974 3.974 0 0 0-3 1.38V8h3V0H3v3H0v8h8.142A3.926 3.926 0 0 0 8 12a4 4 0 1 0 4-4z" id="outline"/><g id="icon_x5F_bg"><path class="st1" d="M1 10h7V7H7v2H2V4.999h2V4H1z"/><path class="st1" d="M4 1v3h1V1.999h5V6H8v1h3V1zM12 9c-1.654 0-3 1.346-3 3s1.346 3 3 3 3-1.346 3-3-1.346-3-3-3zm1.587 1.455l-.042-.042a.416.416 0 0 0 .042.042zM9.783 12c0-1.223.994-2.217 2.217-2.217.47 0 .904.148 1.264.398l-3.082 3.082A2.202 2.202 0 0 1 9.783 12zm.63 1.545l.042.042a.416.416 0 0 0-.042-.042zm1.587.672c-.47 0-.904-.148-1.264-.398l3.082-3.082c.25.359.398.794.398 1.264A2.217 2.217 0 0 1 12 14.217z"/></g><path class="st2" d="M4 4h4v3H4z" id="color_x5F_importance"/><g id="icon_x5F_fg"><path class="st3" d="M9.783 12c0-1.223.994-2.217 2.217-2.217.47 0 .904.148 1.264.398l-3.082 3.082A2.202 2.202 0 0 1 9.783 12zM12 14.217c-.47 0-.904-.148-1.264-.398l3.082-3.082c.25.359.398.794.398 1.264A2.217 2.217 0 0 1 12 14.217z"/></g></svg>