<svg xmlns="http://www.w3.org/2000/svg" width="16" height="16"><style type="text/css">.icon-canvas-transparent{opacity:0;fill:#F6F6F6;} .icon-vs-bg{fill:#424242;} .icon-vs-fg{fill:#F0EFF1;} .icon-vs-action-blue{fill:#00539C;} .icon-vs-out{fill:#F6F6F6;}</style><path class="icon-canvas-transparent" d="M16 16h-16v-16h16v16z" id="canvas"/><path class="icon-vs-out" d="M12 7h-4v4h-8v-7h4v-4h8v7zm3.92 4c-.124-1.174-.571-2.969-3.326-2.969-2.908 0-3.354 1.84-3.502 2.969v5h6.908" id="outline"/><path class="icon-vs-bg" d="M10.018 11.563c.131-1.125.181-2.531 2.576-2.531 2.227 0 2.285 1.412 2.37 2.531h-.966c-.014-.746-.155-1.541-1.404-1.541-1.241 0-1.516.812-1.575 1.541h-1.001zm4.982.437v3h-5v-3h5zm-2 1h-1v1h1v-1z" id="iconBg"/><path class="icon-vs-fg" d="M12 13h1v1h-1v-1z" id="iconFg"/><path class="icon-vs-action-blue" d="M11 1v5h-3v-2h-3v-3h6zm-10 9h6v-5h-6v5z" id="colorAction"/></svg>