<?xml version="1.0" encoding="utf-8"?>
<!-- Generator: Adobe Illustrator 19.1.0, SVG Export Plug-In . SVG Version: 6.00 Build 0)  -->
<svg version="1.1" xmlns="http://www.w3.org/2000/svg" xmlns:xlink="http://www.w3.org/1999/xlink" x="0px" y="0px" width="16px"
	 height="16px" viewBox="0 0 16 16" style="enable-background:new 0 0 16 16;" xml:space="preserve">
<style type="text/css">
	.icon_x002D_canvas_x002D_transparent{opacity:0;fill:#F6F6F6;}
	.icon_x002D_vs_x002D_out{fill:#F6F6F6;}
	.icon_x002D_vs_x002D_bg{fill:#424242;}
	.icon_x002D_vs_x002D_fg{fill:#F0EFF1;}
	.icon_x002D_vs_x002D_action_x002D_blue{fill:#00539C;}
</style>
<g id="canvas">
	<rect class="icon_x002D_canvas_x002D_transparent" width="16" height="16"/>
</g>
<g id="outline">
	<path class="icon_x002D_vs_x002D_out" d="M12,7H8v4H0V4h4V0h8V7z M12,16c2.209,0,4-1.791,4-4c0-2.209-1.791-4-4-4
		c-2.209,0-4,1.791-4,4C8,14.209,9.791,16,12,16z"/>
</g>
<g id="iconBg">
	<path class="icon_x002D_vs_x002D_bg" d="M12,9c-1.654,0-3,1.346-3,3s1.346,3,3,3s3-1.346,3-3S13.654,9,12,9z M13.587,10.455
		l-0.042-0.042C13.558,10.428,13.572,10.442,13.587,10.455z M9.783,12c0-1.223,0.994-2.217,2.217-2.217
		c0.47,0,0.904,0.148,1.264,0.398l-3.082,3.082C9.932,12.904,9.783,12.47,9.783,12z M10.413,13.545l0.042,0.042
		C10.442,13.572,10.428,13.558,10.413,13.545z M12,14.217c-0.47,0-0.904-0.148-1.264-0.398l3.082-3.082
		c0.25,0.359,0.398,0.794,0.398,1.264C14.217,13.223,13.223,14.217,12,14.217z"/>
</g>
<g id="iconFg">
	<path class="icon_x002D_vs_x002D_fg" d="M9.783,12c0-1.223,0.994-2.217,2.217-2.217c0.47,0,0.904,0.148,1.264,0.398l-3.082,3.082
		C9.932,12.904,9.783,12.47,9.783,12z M14.217,12c0-0.47-0.148-0.904-0.398-1.264l-3.082,3.082c0.359,0.25,0.794,0.398,1.264,0.398
		C13.223,14.217,14.217,13.223,14.217,12z"/>
</g>
<g id="colorAction">
	<path class="icon_x002D_vs_x002D_action_x002D_blue" d="M11,1v5H8V4H5V1H11z M1,10h6V5H1V10z"/>
</g>
</svg>
