<svg xmlns="http://www.w3.org/2000/svg" width="16" height="16"><style type="text/css">.icon-canvas-transparent{opacity:0;fill:#F6F6F6;} .icon-vs-out{fill:#F6F6F6;} .icon-vs-bg{fill:#424242;} .icon-vs-action-blue{fill:#00539C;}</style><path class="icon-canvas-transparent" d="M16 16h-16v-16h16v16z" id="canvas"/><path class="icon-vs-out" d="M12 7h-4v4h-8v-7h4v-4h8v7zm2.607 6.545l1.393-1.045v-1.5h-2.156l-.6-2h-1.488l-.6 2h-2.156v1.5l1.393 1.045-.737 2.455h1.677l1.167-.875 1.167.875h1.677l-.737-2.455z" id="outline"/><path class="icon-vs-bg" d="M14 15l-1.5-1.125-1.5 1.125.551-1.837-1.551-1.163h1.9l.6-2 .6 2h1.9l-1.551 1.163.551 1.837z" id="iconBg"/><path class="icon-vs-action-blue" d="M11 1v5h-3v-2h-3v-3h6zm-10 9h6v-5h-6v5z" id="colorAction"/></svg>