<svg xmlns="http://www.w3.org/2000/svg" viewBox="0 0 16 16"><defs><style>.icon-canvas-transparent,.icon-vs-out{fill:#f6f6f6;}.icon-canvas-transparent{opacity:0;}.icon-vs-fg{fill:#f0eff1;}.icon-vs-bg{fill:#424242;}</style></defs><title>XMLFile_16x</title><path class="icon-canvas-transparent" d="M16,0V16H0V0Z"/><path class="icon-vs-out" d="M15,4.379V16H2V14.2l-2-2V11.8l2-2V0h8.621Z"/><path class="icon-vs-fg" d="M12.793,5H10V2.207ZM9,6V2H4V8h6.2L13,10.8V6Zm4,8v-.8l-.8.8Z"/><path class="icon-vs-bg" d="M10.207,1H3V8.8L3.8,8H4V2H9V6h4v4.8l1,1v-7ZM10,5V2.207L12.793,5Zm3,8.2,1-1V15H11.2l1-1H13ZM4.77,9.854,2.624,12,4.77,14.146l-.707.707L1.209,12,4.063,9.146ZM7.736,8.814l.929.371-2.4,6-.929-.371ZM12.791,12,9.937,14.854l-.707-.707L11.376,12,9.23,9.854l.707-.707Z"/></svg>